<svg xmlns="http://www.w3.org/2000/svg" width="70" height="70" viewBox="0 0 70 70" version="1.1">
	<path d="M 33.506 16.125 C 32.525 18.680, 33.432 47.988, 34.500 48.252 C 35.856 48.588, 36.398 16.998, 35.059 15.659 C 34.401 15.001, 33.876 15.158, 33.506 16.125 M 20.630 31.789 C 19.986 32.832, 24.465 46.865, 25.900 48.300 C 27.976 50.376, 27.789 46.729, 25.470 39.911 C 22.856 32.226, 21.631 30.170, 20.630 31.789 M 44.047 39.236 C 40.432 47.208, 40.190 48.135, 41.588 48.654 C 43.156 49.237, 49.313 34.913, 48.041 33.641 C 47.371 32.971, 46.046 34.827, 44.047 39.236" stroke="none" fill="#000000" fill-rule="evenodd"/>
</svg>