<svg xmlns="http://www.w3.org/2000/svg" width="70" height="70" viewBox="0 0 70 70" version="1.1">
	<path d="M 28.455 10.455 C 25.090 13.819, 25.266 18.603, 29.029 26.058 L 32.058 32.058 26.058 29.029 C 15.377 23.637, 8 26.077, 8 35 C 8 43.654, 16.043 46.546, 26.033 41.483 C 31.796 38.563, 31.776 38.535, 28.500 45 C 23.632 54.608, 26.458 62, 35 62 C 43.954 62, 46.364 54.625, 40.928 43.857 L 37.856 37.772 43.606 40.886 C 54.080 46.559, 62 44.025, 62 35 C 62 26.127, 54.620 23.639, 44.081 28.959 L 38.220 31.918 41.092 26.709 C 44.846 19.901, 45.012 13.922, 41.545 10.455 C 38.134 7.044, 31.866 7.044, 28.455 10.455 M 32.235 11.046 C 27.914 12.764, 27.599 16.471, 31.126 24.123 C 32.870 27.905, 34.704 31, 35.203 31 C 36.589 31, 41.333 19.969, 41.333 16.748 C 41.333 12.102, 36.771 9.242, 32.235 11.046 M 14.235 29.046 C 9.311 31.004, 9.432 39.073, 14.415 40.967 C 17.285 42.059, 20.649 41.233, 27.486 37.758 L 32.430 35.246 26.465 32.253 C 18.826 28.421, 17.007 27.944, 14.235 29.046 M 44.968 31.633 L 37.500 35.262 43.918 38.298 C 53.926 43.031, 59.333 41.874, 59.333 35 C 59.333 28.099, 54.548 26.977, 44.968 31.633 M 31.126 45.877 C 27.542 53.653, 27.915 57.257, 32.482 58.993 C 37.999 61.091, 42.790 56.242, 41.083 50.289 C 39.914 46.215, 36.108 39, 35.128 39 C 34.670 39, 32.870 42.095, 31.126 45.877" stroke="none" fill="#000000" fill-rule="evenodd"/>
</svg>