<svg xmlns="http://www.w3.org/2000/svg" width="90" height="90" viewBox="0 0 90 90" version="1.1">
	<path d="M 35.286 29.393 C 26.993 32.098, 14 42.221, 14 45.978 C 14 48.264, 17.191 46.748, 20.941 42.680 C 34.025 28.486, 55.652 27.754, 70.020 41.018 C 77.502 47.925, 79.962 45.496, 72.615 38.456 C 63.328 29.557, 46.964 25.585, 35.286 29.393 M 39.121 52.710 C 35.850 54.322, 32.011 59.197, 32.004 61.750 C 31.997 63.845, 34.856 63.144, 36.082 60.750 C 40.104 52.895, 53.987 53.083, 56.508 61.026 C 57.303 63.531, 60 63.615, 60 61.135 C 60 53.668, 47.454 48.605, 39.121 52.710" stroke="none" fill="#000000" fill-rule="evenodd"/>
</svg>