<svg xmlns="http://www.w3.org/2000/svg" width="70" height="70" viewBox="0 0 70 70" version="1.1">
	<path d="M 34 14.910 L 34 24.820 29.969 29.920 L 25.938 35.019 29.969 40.955 C 33.943 46.807, 34 47.018, 34 55.945 C 34 61.315, 34.407 65, 35 65 C 35.593 65, 36 61.315, 36 55.945 C 36 47.018, 36.057 46.807, 40.031 40.955 L 44.062 35.019 40.031 29.920 L 36 24.820 36 14.910 C 36 8.970, 35.599 5, 35 5 C 34.401 5, 34 8.970, 34 14.910 M 36 35.500 C 36 41.810, 36.349 42.159, 38.499 38.002 C 39.909 35.275, 39.901 34.778, 38.410 32.502 C 36.151 29.055, 36 29.243, 36 35.500 M 31.249 32.972 C 30.305 34.484, 30.287 35.535, 31.169 37.472 C 32.906 41.284, 34 40.521, 34 35.500 C 34 30.628, 33.183 29.877, 31.249 32.972" stroke="none" fill="#000000" fill-rule="evenodd"/>
</svg>