<svg xmlns="http://www.w3.org/2000/svg" width="90" height="90" viewBox="0 0 90 90" version="1.1">
	<path d="M 36 8.024 C 36 8.587, 37.529 11.271, 39.398 13.988 L 42.796 18.928 40.148 25.214 C 36.183 34.626, 36.217 54.984, 40.216 65.939 C 43.136 73.939, 43.182 73.645, 38.107 79.257 C 33.936 83.868, 36.975 85.225, 41.450 80.750 L 45 77.200 48.550 80.750 C 53.025 85.225, 56.064 83.868, 51.893 79.257 C 46.818 73.645, 46.864 73.939, 49.784 65.939 C 53.783 54.984, 53.817 34.626, 49.852 25.214 L 47.204 18.928 50.602 13.988 C 52.471 11.271, 54 8.587, 54 8.024 C 54 5.680, 50.938 7.271, 48.315 10.979 C 46.767 13.167, 45.275 14.957, 45 14.957 C 44.725 14.957, 43.233 13.167, 41.685 10.979 C 39.062 7.271, 36 5.680, 36 8.024 M 42.622 28.750 C 40.278 35.988, 39.664 44.817, 40.930 53.056 C 42.107 60.708, 43.943 67, 45 67 C 47.302 67, 50.467 47.970, 49.565 39.556 C 48.834 32.734, 46.271 24, 45 24 C 44.538 24, 43.468 26.137, 42.622 28.750" stroke="none" fill="#000000" fill-rule="evenodd"/>
</svg>