<svg xmlns="http://www.w3.org/2000/svg" width="70" height="70" viewBox="0 0 70 70" version="1.1">
	<path d="M 21.269 19.744 C 21.006 20.428, 22.986 23.578, 25.670 26.744 C 28.353 29.910, 31.093 33.212, 31.758 34.083 C 32.771 35.408, 31.991 36.828, 26.984 42.776 C 23.693 46.686, 21 50.361, 21 50.942 C 21 53.289, 23.151 51.673, 28.577 45.250 C 31.713 41.538, 34.554 38.414, 34.890 38.308 C 35.225 38.203, 37.975 41.216, 41 45.004 C 45.976 51.236, 49 53.537, 49 51.091 C 49 50.591, 46.300 46.950, 43 43 C 39.700 39.050, 37 35.646, 37 35.435 C 37 35.224, 39.700 31.914, 43 28.080 C 46.300 24.246, 49 20.522, 49.001 19.804 C 49.002 17.966, 21.976 17.907, 21.269 19.744 M 26.193 22.828 C 30.124 28.328, 35.167 33.356, 35.796 32.405 C 36.183 31.821, 38.188 29.307, 40.250 26.818 C 42.313 24.330, 44 22.003, 44 21.647 C 44 21.291, 39.699 21, 34.443 21 C 25.376 21, 24.954 21.094, 26.193 22.828" stroke="none" fill="#000000" fill-rule="evenodd"/>
</svg>