<svg xmlns="http://www.w3.org/2000/svg" width="70" height="70" viewBox="0 0 70 70" version="1.1">
	<path d="M 33.510 15.112 C 32.517 17.700, 33.436 54.987, 34.500 55.252 C 35.858 55.589, 36.398 15.998, 35.055 14.655 C 34.403 14.003, 33.876 14.159, 33.510 15.112 M 20.250 23.250 C 20.880 25.142, 24 25.411, 24 23.573 C 24 22.646, 23.145 22, 21.917 22 C 20.695 22, 20.005 22.517, 20.250 23.250 M 45.570 22.887 C 44.889 23.988, 47.438 26.229, 48.342 25.325 C 48.704 24.963, 49 24.067, 49 23.333 C 49 21.844, 46.422 21.508, 45.570 22.887 M 20.667 45.667 C 19.399 46.934, 20.008 48, 22 48 C 23.111 48, 24 47.333, 24 46.500 C 24 44.978, 21.885 44.449, 20.667 45.667 M 45.624 46.538 C 45.284 47.423, 45.681 48.324, 46.560 48.661 C 48.517 49.412, 49.409 48.509, 48.655 46.543 C 47.896 44.565, 46.382 44.562, 45.624 46.538" stroke="none" fill="#000000" fill-rule="evenodd"/>
</svg>