<svg xmlns="http://www.w3.org/2000/svg" width="70" height="70" viewBox="0 0 70 70" version="1.1">
	<path d="M 34 20.500 C 34 26.833, 34.397 31, 35 31 C 35.603 31, 36 26.833, 36 20.500 C 36 14.167, 35.603 10, 35 10 C 34.397 10, 34 14.167, 34 20.500 M 16 35 C 16 35.578, 19.167 36, 23.500 36 C 27.833 36, 31 35.578, 31 35 C 31 34.422, 27.833 34, 23.500 34 C 19.167 34, 16 34.422, 16 35 M 39 35 C 39 35.578, 42.167 36, 46.500 36 C 50.833 36, 54 35.578, 54 35 C 54 34.422, 50.833 34, 46.500 34 C 42.167 34, 39 34.422, 39 35 M 34 49.500 C 34 55.833, 34.397 60, 35 60 C 35.603 60, 36 55.833, 36 49.500 C 36 43.167, 35.603 39, 35 39 C 34.397 39, 34 43.167, 34 49.500" stroke="none" fill="#000000" fill-rule="evenodd"/>
</svg>