<svg xmlns="http://www.w3.org/2000/svg" width="70" height="70" viewBox="0 0 70 70" version="1.1">
	<path d="M 18.074 34.595 C 14.335 39.261, 13.101 41.501, 13.855 42.255 C 14.973 43.373, 16.695 41.739, 21.231 35.257 C 24.143 31.094, 23.916 31.033, 29.900 37.581 L 35 43.161 40.100 37.581 C 42.906 34.511, 45.527 32, 45.925 32 C 46.324 32, 48.416 34.465, 50.575 37.478 C 54.563 43.045, 55.433 43.726, 56.454 42.075 C 57.147 40.953, 47.959 28.172, 46.387 28.071 C 45.775 28.032, 43.169 30.250, 40.597 33 C 38.024 35.750, 35.549 38, 35.097 38 C 34.644 38, 32.169 35.750, 29.597 33 C 27.024 30.250, 24.569 28, 24.139 28 C 23.710 28, 20.981 30.968, 18.074 34.595" stroke="none" fill="#000000" fill-rule="evenodd"/>
</svg>