<svg xmlns="http://www.w3.org/2000/svg" width="70" height="70" viewBox="0 0 70 70" version="1.1">
	<path d="M 22 4.903 C 22 5.507, 23.096 6, 24.435 6 C 25.774 6, 28.056 6.451, 29.506 7.002 L 32.142 8.004 30.017 10.706 C 28.848 12.192, 26.076 14.490, 23.857 15.813 L 19.822 18.220 16.426 14.928 C 11.997 10.635, 10.635 11.997, 14.928 16.426 L 18.220 19.822 15.813 23.857 C 14.490 26.076, 12.192 28.848, 10.706 30.017 L 8.004 32.142 7.002 29.506 C 6.451 28.056, 6 25.774, 6 24.435 C 6 23.096, 5.507 22, 4.903 22 C 4.169 22, 4.010 23.735, 4.422 27.250 C 5.191 33.821, 5.191 36.179, 4.422 42.750 C 4.010 46.265, 4.169 48, 4.903 48 C 5.507 48, 6 46.904, 6 45.565 C 6 44.226, 6.451 41.944, 7.002 40.494 L 8.004 37.858 10.701 39.979 C 12.183 41.146, 14.449 43.952, 15.734 46.215 L 18.072 50.331 14.854 53.650 C 10.613 58.027, 12.043 59.320, 16.426 55.072 L 19.822 51.780 23.857 54.187 C 26.076 55.510, 28.848 57.808, 30.017 59.294 L 32.142 61.996 29.506 62.998 C 28.056 63.549, 25.774 64, 24.435 64 C 23.096 64, 22 64.450, 22 65 C 22 66.411, 29.632 66.246, 31.973 64.785 C 33.501 63.831, 34.643 63.831, 37.281 64.785 C 41.342 66.253, 48 66.387, 48 65 C 48 64.450, 46.904 64, 45.565 64 C 44.226 64, 41.944 63.549, 40.494 62.998 L 37.858 61.996 39.979 59.299 C 41.146 57.817, 43.952 55.551, 46.215 54.266 L 50.331 51.928 53.650 55.146 C 57.980 59.343, 59.343 57.980, 55.146 53.650 L 51.928 50.331 54.266 46.215 C 55.551 43.952, 57.817 41.146, 59.299 39.979 L 61.996 37.858 62.998 40.494 C 63.549 41.944, 64 44.226, 64 45.565 C 64 46.904, 64.450 48, 65 48 C 66.387 48, 66.253 41.342, 64.785 37.281 C 63.831 34.643, 63.831 33.501, 64.785 31.973 C 66.246 29.632, 66.411 22, 65 22 C 64.450 22, 64 23.096, 64 24.435 C 64 25.774, 63.549 28.056, 62.998 29.506 L 61.996 32.142 59.294 30.017 C 57.808 28.848, 55.510 26.076, 54.187 23.857 L 51.780 19.822 55.072 16.426 C 59.320 12.043, 58.027 10.613, 53.650 14.854 L 50.331 18.072 46.215 15.734 C 43.952 14.449, 41.146 12.183, 39.979 10.701 L 37.858 8.004 40.494 7.002 C 41.944 6.451, 44.226 6, 45.565 6 C 46.904 6, 48 5.507, 48 4.903 C 48 4.169, 46.265 4.010, 42.750 4.422 C 39.862 4.760, 36.375 5.037, 35 5.037 C 33.625 5.037, 30.138 4.760, 27.250 4.422 C 23.735 4.010, 22 4.169, 22 4.903 M 33.170 10.874 C 31.149 12.155, 32.101 17.407, 34.434 17.850 C 38.137 18.554, 39.818 12.987, 36.573 10.765 C 35.206 9.830, 34.797 9.843, 33.170 10.874 M 25.322 17.984 C 18.253 22.367, 15.552 27.461, 18.651 30.560 C 21.634 33.544, 21.634 36.456, 18.651 39.440 C 15.552 42.539, 18.253 47.633, 25.322 52.016 C 28.076 53.724, 28.201 53.708, 30.526 51.383 C 33.542 48.367, 36.447 48.356, 39.440 51.349 C 42.539 54.448, 47.633 51.747, 52.016 44.678 C 53.724 41.924, 53.708 41.799, 51.383 39.474 C 48.357 36.448, 48.357 33.552, 51.383 30.526 C 53.708 28.201, 53.724 28.076, 52.016 25.322 C 47.633 18.253, 42.539 15.552, 39.440 18.651 C 36.447 21.644, 33.542 21.633, 30.526 18.617 C 28.201 16.292, 28.076 16.276, 25.322 17.984 M 12.835 31.732 C 10.840 32.190, 9.837 34.412, 10.659 36.554 C 11.619 39.056, 17.421 38.053, 17.811 35.318 C 18.150 32.931, 15.604 31.096, 12.835 31.732 M 52.667 32.667 C 51.425 33.908, 51.991 36.896, 53.642 37.820 C 57.199 39.810, 61.333 36.311, 58.895 33.373 C 57.710 31.946, 53.828 31.506, 52.667 32.667 M 32.082 53.846 C 31.271 55.363, 31.429 56.309, 32.773 57.968 C 35.303 61.092, 38.204 59.739, 37.804 55.622 C 37.433 51.817, 33.776 50.681, 32.082 53.846" stroke="none" fill="#000000" fill-rule="evenodd"/>
</svg>