<svg xmlns="http://www.w3.org/2000/svg" width="70" height="70" viewBox="0 0 70 70" version="1.1">
	<path d="M 27.575 24.035 C 23.959 29.554, 21 34.483, 21 34.989 C 21 36.545, 33.975 56, 35.013 56 C 35.954 56, 46.255 40.729, 48.212 36.433 C 49.007 34.690, 48.031 32.591, 42.511 24.165 C 38.848 18.574, 35.468 14, 35 14 C 34.532 14, 31.191 18.516, 27.575 24.035 M 29.180 26.485 C 26.110 31.380, 24.156 35.502, 24.560 36.233 C 26.647 40.017, 34.573 51.976, 35 51.985 C 36.263 52.014, 46.068 34.905, 45.440 33.767 C 43.353 29.983, 35.427 18.024, 35 18.015 C 34.725 18.008, 32.106 21.820, 29.180 26.485" stroke="none" fill="#000000" fill-rule="evenodd"/>
</svg>