<svg xmlns="http://www.w3.org/2000/svg" width="70" height="70" viewBox="0 0 70 70" version="1.1">
	<path d="M 51.750 4.782 C 36.784 5.141, 36.434 6.845, 51.250 7.217 L 62.500 7.500 62.783 18.750 C 62.943 25.134, 63.484 30, 64.033 30 C 65.171 30, 65.384 5.276, 64.250 4.809 C 63.837 4.639, 58.213 4.627, 51.750 4.782 M 5 17.500 C 5 33.295, 6.826 34.324, 7.217 18.750 L 7.500 7.500 18.750 7.217 C 34.324 6.826, 33.295 5, 17.500 5 L 5 5 5 17.500 M 11.146 11 C 10.139 11.779, 11.026 30, 12.071 30 C 12.582 30, 13 26.175, 13 21.500 L 13 13 21.500 13 C 26.175 13, 30 12.582, 30 12.071 C 30 11.113, 12.300 10.108, 11.146 11 M 48.750 10.755 C 37.479 11.171, 37.275 13, 48.500 13 L 57 13 57 21.500 C 57 32.779, 58.951 32.779, 59.150 21.500 C 59.232 16.825, 59.345 12.475, 59.400 11.833 C 59.525 10.378, 59.385 10.363, 48.750 10.755 M 16.800 16.682 C 16.039 18.229, 17.178 30, 18.089 30 C 18.590 30, 19 27.525, 19 24.500 L 19 19 24.500 19 C 27.525 19, 30 18.550, 30 18 C 30 17.450, 27.787 17, 25.082 17 C 22.377 17, 19.497 16.744, 18.683 16.432 C 17.869 16.119, 17.021 16.232, 16.800 16.682 M 45.250 16.728 C 38.297 17.227, 38.492 19, 45.500 19 L 51 19 51 24.500 C 51 27.525, 51.450 30, 52 30 C 52.550 30, 53.068 27.525, 53.150 24.500 C 53.232 21.475, 53.345 18.444, 53.400 17.764 C 53.515 16.341, 52.480 16.210, 45.250 16.728 M 5 52.500 L 5 65 17.500 65 C 33.295 65, 34.324 63.174, 18.750 62.783 L 7.500 62.500 7.217 51.250 C 6.826 35.676, 5 36.705, 5 52.500 M 10.810 49.250 C 10.627 54.337, 10.707 58.730, 10.989 59.011 C 11.897 59.920, 30 58.890, 30 57.929 C 30 57.418, 26.175 57, 21.500 57 L 13 57 13 48.500 C 13 37.035, 11.227 37.642, 10.810 49.250 M 16.749 46.250 C 16.152 53.832, 16.014 53.695, 23.750 53.212 C 31.460 52.731, 32.047 51, 24.500 51 L 19 51 19 45.500 C 19 37.988, 17.356 38.536, 16.749 46.250 M 51 45.500 L 51 51 45.500 51 C 37.988 51, 38.536 52.644, 46.250 53.251 C 53.920 53.854, 53.854 53.920, 53.251 46.250 C 52.644 38.536, 51 37.988, 51 45.500 M 57 48.500 L 57 57 48.500 57 C 43.825 57, 40 57.418, 40 57.929 C 40 58.890, 58.103 59.920, 59.011 59.011 C 59.920 58.103, 58.890 40, 57.929 40 C 57.418 40, 57 43.825, 57 48.500 M 62.783 51.250 L 62.500 62.500 51.250 62.783 C 35.676 63.174, 36.705 65, 52.500 65 L 65 65 65 52.500 C 65 36.705, 63.174 35.676, 62.783 51.250" stroke="none" fill="#000000" fill-rule="evenodd"/>
</svg>