<svg xmlns="http://www.w3.org/2000/svg" width="70" height="70" viewBox="0 0 70 70" version="1.1">
	<path d="M 21.439 12.299 C 21.138 13.083, 21.029 16.374, 21.196 19.612 L 21.500 25.500 27.250 25.800 L 33 26.100 33 41.050 L 33 56 28.548 56 L 24.095 56 23.798 49.750 C 23.376 40.906, 21.558 41.959, 21.208 51.250 L 20.916 59 35.002 59 L 49.088 59 48.794 51.750 C 48.444 43.122, 46.627 42.070, 46.200 50.250 L 45.900 56 40.950 56 L 36 56 36 41 L 36 26 42.544 26 L 49.088 26 48.794 18.750 C 48.449 10.243, 46.642 9.364, 46.200 17.488 L 45.900 23 34.950 23 L 24 23 24 17.559 C 24 12.309, 22.566 9.362, 21.439 12.299" stroke="none" fill="#000000" fill-rule="evenodd"/>
</svg>