<svg xmlns="http://www.w3.org/2000/svg" width="70" height="70" viewBox="0 0 70 70" version="1.1">
	<path d="M 29.297 16.191 C 22.627 23.310, 22.400 28.800, 28.500 35.445 C 33.734 41.146, 34.101 43.695, 30.526 49.500 C 27.255 54.811, 27.214 57.087, 30.444 54.053 C 37.251 47.657, 37.601 41.200, 31.500 34.555 C 26.245 28.831, 25.929 26.503, 29.568 20.293 C 32.567 15.177, 32.414 12.864, 29.297 16.191 M 39.297 16.191 C 32.627 23.310, 32.400 28.800, 38.500 35.445 C 43.734 41.146, 44.101 43.695, 40.526 49.500 C 37.255 54.811, 37.214 57.087, 40.444 54.053 C 47.251 47.657, 47.601 41.200, 41.500 34.555 C 36.245 28.831, 35.929 26.503, 39.568 20.293 C 42.567 15.177, 42.414 12.864, 39.297 16.191" stroke="none" fill="#000000" fill-rule="evenodd"/>
</svg>