<svg xmlns="http://www.w3.org/2000/svg" width="70" height="70" viewBox="0 0 70 70" version="1.1">
	<path d="M 27.195 24.304 C 23.205 28.320, 20.266 31.933, 20.664 32.331 C 21.062 32.728, 23.988 30.480, 27.168 27.334 C 30.347 24.188, 33.224 21.891, 33.562 22.229 C 33.900 22.566, 33.862 25.779, 33.477 29.367 C 32.825 35.459, 32.387 36.357, 26.889 42.888 C 23.650 46.736, 21 50.361, 21 50.942 C 21 53.289, 23.151 51.673, 28.577 45.250 C 31.713 41.537, 34.554 38.414, 34.890 38.308 C 35.225 38.203, 37.975 41.216, 41 45.004 C 45.968 51.226, 49 53.537, 49 51.102 C 49 50.608, 46.075 46.686, 42.500 42.386 C 36.019 34.591, 36 34.550, 36 28.284 C 36 24.828, 36.323 22, 36.719 22 C 37.114 22, 39.803 24.336, 42.694 27.191 C 45.585 30.047, 48.274 32.059, 48.670 31.663 C 49.328 31.005, 36.273 17, 35.002 17 C 34.698 17, 31.185 20.287, 27.195 24.304" stroke="none" fill="#000000" fill-rule="evenodd"/>
</svg>