<svg xmlns="http://www.w3.org/2000/svg" width="70" height="70" viewBox="0 0 70 70" version="1.1">
	<path d="M 24.529 7.952 C 23.709 9.280, 25.686 20.917, 27.002 22.502 C 27.596 23.218, 29.179 24.079, 30.519 24.415 L 32.956 25.027 33.228 43.764 C 33.593 68.872, 35.406 68.927, 35.772 43.840 L 36.043 25.180 38.948 24.168 C 42.829 22.815, 44.764 19.526, 45.167 13.598 C 45.625 6.855, 43.420 6.277, 42.777 12.970 C 42.293 18.009, 39.911 22, 37.389 22 C 36.467 22, 36.002 19.885, 35.794 14.750 C 35.632 10.762, 35.050 7.500, 34.500 7.500 C 33.950 7.500, 33.368 10.762, 33.206 14.750 C 33.045 18.738, 32.514 22, 32.028 22 C 29.864 22, 28.150 18.601, 27.504 13.030 C 26.846 7.367, 25.895 5.743, 24.529 7.952" stroke="none" fill="#000000" fill-rule="evenodd"/>
</svg>