<svg xmlns="http://www.w3.org/2000/svg" width="70" height="70" viewBox="0 0 70 70" version="1.1">
	<path d="M 32.929 22.281 C 32.064 23.502, 30.296 25.957, 29 27.738 C 25.524 32.511, 27.560 33.107, 31.522 28.477 L 34.925 24.500 34.962 34.190 L 35 43.879 31.479 44.190 C 29.543 44.360, 27.968 44.950, 27.979 45.500 C 28.011 47.042, 45.233 46.800, 45.750 45.250 C 46.043 44.371, 44.806 44, 41.583 44 L 37 44 37.015 34.250 L 37.030 24.500 40.349 28.423 C 45.144 34.091, 45.593 31.388, 40.883 25.211 C 36.494 19.456, 35.253 18.999, 32.929 22.281" stroke="none" fill="#000000" fill-rule="evenodd"/>
</svg>