<svg xmlns="http://www.w3.org/2000/svg" width="70" height="70" viewBox="0 0 70 70" version="1.1">
	<path d="M 22.605 21.830 C 22.323 22.286, 24.547 25.083, 27.546 28.046 C 33.952 34.372, 33.852 33.994, 29.891 36.923 L 26.782 39.221 21.085 33.584 C 17.951 30.483, 15.063 28.270, 14.667 28.667 C 14.270 29.063, 16.517 31.985, 19.658 35.160 C 25.275 40.836, 25.340 40.967, 23.530 42.966 C 20.885 45.889, 20.193 45.628, 13.788 39.291 C 9.866 35.410, 7.692 33.908, 6.999 34.601 C 6.021 35.579, 18.659 49, 20.558 49 C 20.988 49, 24.429 46.018, 28.204 42.374 L 35.067 35.747 41.784 42.118 C 45.478 45.622, 48.785 48.883, 49.134 49.366 C 50.128 50.740, 51.395 49.917, 57.981 43.616 C 62.051 39.723, 63.796 37.396, 63.140 36.740 C 62.483 36.083, 60.251 37.541, 56.544 41.047 L 50.941 46.346 48.283 44.362 C 44.234 41.339, 44.445 40.612, 50.899 35.367 C 56.365 30.924, 58.424 28, 56.087 28 C 55.586 28, 52.482 30.250, 49.191 33 C 42.426 38.653, 42.015 38.779, 39.470 35.966 C 37.660 33.967, 37.725 33.836, 43.342 28.160 C 46.483 24.985, 48.742 22.075, 48.360 21.694 C 47.370 20.704, 23.222 20.831, 22.605 21.830 M 31.502 28.002 L 35.411 32.005 39.205 28.299 C 41.292 26.262, 43 24.460, 43 24.297 C 43 24.134, 39.534 24, 35.297 24 L 27.594 24 31.502 28.002" stroke="none" fill="#000000" fill-rule="evenodd"/>
</svg>