<svg xmlns="http://www.w3.org/2000/svg" width="70" height="70" viewBox="0 0 70 70" version="1.1">
	<path d="M 34 16.375 C 34 18.188, 33.323 18.885, 31.140 19.322 C 29.566 19.637, 26.850 21.097, 25.104 22.566 C 14.967 31.096, 17.566 45.128, 30.250 50.353 C 32.862 51.429, 34 52.520, 34 53.949 C 34 55.077, 34.450 56, 35 56 C 35.550 56, 36 54.875, 36 53.500 C 36 51.866, 36.559 51, 37.614 51 C 40.758 51, 46.793 46.713, 48.882 42.996 C 53.922 34.029, 49.932 23.794, 39.736 19.534 C 37.199 18.474, 36 17.336, 36 15.987 C 36 14.894, 35.550 14, 35 14 C 34.450 14, 34 15.069, 34 16.375 M 26.331 25.335 C 23.149 28.251, 22.633 29.382, 22.223 34.330 C 21.765 39.846, 21.854 40.089, 25.759 43.994 C 33.024 51.259, 34 50.194, 34 35 C 34 20.038, 33.205 19.036, 26.331 25.335 M 36.667 22.667 C 36.300 23.033, 36 28.883, 36 35.667 C 36 49.234, 36.273 49.724, 41.960 46.364 C 49.226 42.072, 50.282 32.047, 44.118 25.882 C 40.420 22.185, 38.135 21.199, 36.667 22.667" stroke="none" fill="#000000" fill-rule="evenodd"/>
</svg>