<svg xmlns="http://www.w3.org/2000/svg" width="70" height="70" viewBox="0 0 70 70" version="1.1">
	<path d="M 34 21.500 L 34 34 29 34 C 22.987 34, 23.029 33.680, 28.068 41.100 C 36.561 53.607, 35.752 57.170, 26.500 48 C 22.955 44.487, 19.781 41.886, 19.446 42.220 C 18.379 43.288, 20.672 46.317, 27.985 53.500 L 35.111 60.500 42.516 52.500 C 49.401 45.061, 51.317 42, 49.087 42 C 48.585 42, 45.444 45.038, 42.106 48.750 C 36.477 55.012, 36.037 55.303, 36.019 52.781 C 36.008 51.231, 37.934 47.073, 40.500 43.106 C 46.026 34.564, 46.036 34.190, 40.750 33.807 L 36.500 33.500 36.219 21.250 C 35.844 4.884, 34 5.091, 34 21.500 M 29 36.632 C 29 36.980, 30.012 38.892, 31.250 40.882 L 33.500 44.500 33.825 41.666 C 34.274 37.739, 33.417 36, 31.031 36 C 29.914 36, 29 36.284, 29 36.632 M 36 40 C 36 43.803, 37.037 43.801, 39.203 39.994 C 40.896 37.019, 40.891 37, 38.453 37 C 36.394 37, 36 37.482, 36 40" stroke="none" fill="#000000" fill-rule="evenodd"/>
</svg>