<svg xmlns="http://www.w3.org/2000/svg" width="70" height="70" viewBox="0 0 70 70" version="1.1">
	<path d="M 26.489 9.326 C 12.772 14.675, 8.736 23.608, 9.221 47.555 C 9.422 57.486, 9.849 61.452, 10.750 61.751 C 11.713 62.071, 12 58.741, 12 47.265 C 12 30.097, 13.330 23.971, 18.284 18.329 C 27.114 8.273, 43.937 8.606, 52.149 19 C 56.352 24.320, 58 32.405, 58 47.710 C 58 58.857, 58.242 61, 59.500 61 C 62.781 61, 60.834 28.487, 57.121 21.268 C 51.680 10.689, 37.336 5.097, 26.489 9.326 M 28.519 29.250 C 26.520 30.984, 25.695 32.998, 24.919 38.030 C 23.645 46.290, 24.095 61.205, 25.633 61.714 C 26.425 61.976, 26.890 58.094, 27.180 48.794 C 27.432 40.730, 28.092 34.596, 28.858 33.202 C 31.492 28.412, 38.535 28.394, 41.091 33.170 C 41.758 34.416, 42.573 41.300, 42.902 48.468 C 43.531 62.180, 45.274 66.250, 45.798 55.231 C 46.375 43.112, 44.525 31.848, 41.536 29.277 C 37.976 26.215, 32.030 26.203, 28.519 29.250" stroke="none" fill="#000000" fill-rule="evenodd"/>
</svg>