<svg xmlns="http://www.w3.org/2000/svg" width="70" height="70" viewBox="0 0 70 70" version="1.1">
	<path d="M 33.792 9.750 C 33.481 18.002, 31.709 20.388, 31.193 13.250 C 30.803 7.863, 29 7.657, 29 13 C 29 17.814, 28.447 17.904, 19.523 14.545 C 15.935 13.194, 13.019 12.407, 13.042 12.795 C 13.066 13.183, 14.160 16.631, 15.473 20.457 C 18.266 28.589, 18.144 29, 12.941 29 C 10.773 29, 9 29.450, 9 30 C 9 30.550, 11.025 31, 13.500 31 C 16.833 31, 18 31.389, 18 32.500 C 18 33.708, 16.444 34, 10 34 C 5.333 34, 2 34.417, 2 35 C 2 35.583, 5.333 36, 10 36 C 16.444 36, 18 36.292, 18 37.500 C 18 38.611, 16.833 39, 13.500 39 C 11.025 39, 9 39.450, 9 40 C 9 40.550, 10.859 41, 13.131 41 L 17.262 41 16.706 44.424 C 16.400 46.307, 15.012 50.228, 13.620 53.136 C 12.228 56.044, 11.226 58.559, 11.392 58.726 C 11.559 58.892, 14.155 57.903, 17.160 56.527 C 20.166 55.151, 24.060 53.738, 25.813 53.387 C 28.984 52.753, 29 52.771, 29 56.875 C 29 62.310, 30.798 62.207, 31.193 56.750 C 31.709 49.612, 33.481 51.998, 33.792 60.250 C 34.170 70.281, 35.830 70.281, 36.208 60.250 C 36.519 51.998, 38.291 49.612, 38.807 56.750 C 39.197 62.137, 41 62.343, 41 57 C 41 51.592, 41.718 51.664, 57.788 58.681 C 58.586 59.029, 58.332 57.959, 57.122 55.872 C 54.805 51.873, 51.910 42.423, 52.746 41.587 C 53.069 41.264, 55.058 41, 57.167 41 C 59.275 41, 61 40.550, 61 40 C 61 39.450, 58.975 39, 56.500 39 C 53.167 39, 52 38.611, 52 37.500 C 52 36.292, 53.556 36, 60 36 C 64.667 36, 68 35.583, 68 35 C 68 34.417, 64.667 34, 60 34 C 53.556 34, 52 33.708, 52 32.500 C 52 31.389, 53.167 31, 56.500 31 C 58.975 31, 61 30.550, 61 30 C 61 29.450, 59.200 29, 57 29 C 51.926 29, 51.758 27.128, 56.025 18.108 C 59.014 11.791, 59.252 9.761, 56.774 11.724 C 55.122 13.033, 44.361 17, 42.462 17 C 41.423 17, 41 15.843, 41 13 C 41 7.657, 39.197 7.863, 38.807 13.250 C 38.291 20.388, 36.519 18.002, 36.208 9.750 C 35.830 -0.281, 34.170 -0.281, 33.792 9.750 M 18.804 21.250 C 20.929 27.003, 20.829 42.011, 18.625 47.906 C 16.570 53.406, 16.656 53.477, 23.083 51.568 C 29.742 49.591, 40.217 49.555, 46.591 51.489 C 53.150 53.479, 52.980 53.580, 51.196 48.750 C 49.071 42.997, 49.171 27.989, 51.375 22.094 C 53.430 16.594, 53.344 16.523, 46.917 18.432 C 40.258 20.409, 29.783 20.445, 23.409 18.511 C 16.850 16.521, 17.020 16.420, 18.804 21.250" stroke="none" fill="#000000" fill-rule="evenodd"/>
</svg>