<svg xmlns="http://www.w3.org/2000/svg" width="90" height="90" viewBox="0 0 90 90" version="1.1">
	<path d="M 30 21.034 C 30 21.603, 32.963 27.228, 36.583 33.534 L 43.167 45 36.583 56.466 C 32.963 62.772, 30 68.397, 30 68.966 C 30 69.632, 35.336 70, 45 70 C 54.664 70, 60 69.632, 60 68.966 C 60 68.397, 57.037 62.772, 53.417 56.466 L 46.833 45 53.417 33.534 C 57.037 27.228, 60 21.603, 60 21.034 C 60 20.368, 54.664 20, 45 20 C 35.336 20, 30 20.368, 30 21.034 M 34 22.508 C 34 23.694, 44.295 41, 45 41 C 45.705 41, 56 23.694, 56 22.508 C 56 22.229, 51.050 22, 45 22 C 38.950 22, 34 22.229, 34 22.508 M 39.113 57.992 C 36.301 62.938, 34 67.213, 34 67.492 C 34 67.771, 38.950 68, 45 68 C 51.050 68, 56 67.771, 56 67.492 C 56 66.306, 45.705 49, 45 49 C 44.574 49, 41.925 53.046, 39.113 57.992" stroke="none" fill="#000000" fill-rule="evenodd"/>
</svg>