<svg xmlns="http://www.w3.org/2000/svg" width="70" height="70" viewBox="0 0 70 70" version="1.1">
	<path d="M 30.566 18.927 C 27.978 21.787, 26.896 27.818, 28.136 32.468 C 29.585 37.901, 35.331 49.095, 37.827 51.348 C 41.034 54.243, 42.647 52.288, 39.649 49.140 C 36.837 46.189, 31.002 34.455, 31.001 31.750 C 31 30.424, 31.830 30, 34.427 30 C 38.153 30, 42 26.376, 42 22.865 C 42 17.875, 34.009 15.123, 30.566 18.927 M 33.277 20.519 C 32.159 21.302, 31.027 23.080, 30.761 24.471 C 30.326 26.745, 30.596 27, 33.439 27 C 35.177 27, 37.140 26.460, 37.800 25.800 C 41.087 22.513, 37.091 17.847, 33.277 20.519" stroke="none" fill="#000000" fill-rule="evenodd"/>
</svg>