<svg xmlns="http://www.w3.org/2000/svg" width="90" height="90" viewBox="0 0 90 90" version="1.1">
	<path d="M 41.376 17.160 C 35.165 18.814, 34.456 22.706, 39.923 25.126 C 42.965 26.473, 43 26.573, 42.995 33.994 L 42.989 41.500 32.094 30 C 24.560 22.048, 20.869 18.813, 20.133 19.516 C 19.394 20.221, 22.446 24.119, 30.117 32.266 L 41.166 44 31.802 44 L 22.438 44 21.307 41.002 C 18.807 34.379, 13.044 37.516, 13.044 45.500 C 13.044 53.484, 18.807 56.621, 21.307 49.998 L 22.438 47 31.311 47 L 40.184 47 30.092 57.853 C 20.744 67.905, 18.584 71, 20.915 71 C 21.418 71, 26.593 65.964, 32.415 59.809 L 43 48.618 43 56.065 C 43 63.419, 42.962 63.529, 39.923 64.874 C 35.775 66.710, 35.137 68.841, 38.073 71.055 C 42.613 74.480, 49.365 73.884, 52.788 69.757 C 54.173 68.087, 50.323 64, 47.365 64 C 46.329 64, 46.001 62.135, 46.005 56.250 L 46.011 48.500 56.906 60 C 64.392 67.900, 68.133 71.184, 68.860 70.491 C 69.589 69.796, 66.648 65.997, 59.374 58.241 L 48.831 47 57.666 47.022 L 66.500 47.043 68 50.272 C 69.898 54.356, 72.393 54.857, 74.537 51.584 C 76.667 48.333, 76.667 42.667, 74.537 39.416 C 72.410 36.170, 70.105 36.639, 68.090 40.727 L 66.500 43.955 57.168 43.977 L 47.836 44 58.905 32.287 C 66.719 24.019, 69.656 20.270, 68.892 19.537 C 68.131 18.808, 64.581 21.911, 56.923 30 L 46.036 41.500 46.018 33.994 C 46 26.568, 46.033 26.474, 49.077 25.126 C 50.769 24.377, 52.405 23.108, 52.713 22.305 C 53.991 18.975, 46.806 15.714, 41.376 17.160 M 41.352 18.972 C 37.819 20.433, 37.752 21.820, 41.128 23.566 C 45.196 25.670, 52.560 23.104, 49.906 20.508 C 47.982 18.625, 43.944 17.900, 41.352 18.972 M 43.553 20.915 C 43.231 21.436, 43.394 22.125, 43.915 22.447 C 44.436 22.769, 45.125 22.606, 45.447 22.085 C 45.769 21.564, 45.606 20.875, 45.085 20.553 C 44.564 20.231, 43.875 20.394, 43.553 20.915 M 15.450 42.183 C 13.890 45.453, 13.892 45.891, 15.481 48.964 C 17.043 51.983, 17.310 52.119, 18.790 50.639 C 20.879 48.549, 20.861 42.432, 18.758 40.330 C 17.236 38.807, 16.995 38.942, 15.450 42.183 M 69.375 42.340 C 67.434 46.410, 69.848 53.201, 72.464 51.030 C 74.701 49.173, 75.155 45.200, 73.496 41.991 C 71.554 38.237, 71.322 38.257, 69.375 42.340 M 16.597 44.844 C 16.251 45.404, 16.455 46.163, 17.050 46.531 C 18.588 47.481, 19.580 46.180, 18.296 44.896 C 17.578 44.178, 17.019 44.161, 16.597 44.844 M 70.553 44.915 C 70.231 45.436, 70.394 46.125, 70.915 46.447 C 71.436 46.769, 72.125 46.606, 72.447 46.085 C 72.769 45.564, 72.606 44.875, 72.085 44.553 C 71.564 44.231, 70.875 44.394, 70.553 44.915 M 40.750 66.548 C 37.319 68.439, 37.328 68.601, 40.991 70.496 C 44.162 72.135, 48.169 71.706, 49.971 69.535 C 52.389 66.622, 44.974 64.221, 40.750 66.548 M 43.597 67.844 C 43.251 68.404, 43.455 69.163, 44.050 69.531 C 45.588 70.481, 46.580 69.180, 45.296 67.896 C 44.578 67.178, 44.019 67.161, 43.597 67.844" stroke="none" fill="#000000" fill-rule="evenodd"/>
</svg>