<svg xmlns="http://www.w3.org/2000/svg" width="90" height="90" viewBox="0 0 90 90" version="1.1">
	<path d="M 37.190 10.353 C 28.194 15.345, 29.767 30.968, 39.511 33.413 C 41.974 34.032, 42 34.154, 42 45 C 42 55.846, 41.974 55.968, 39.511 56.587 C 35.203 57.668, 30.999 63.451, 31.007 68.285 C 31.023 78.524, 41.127 84.268, 49.810 78.974 C 58.289 73.805, 57.240 60.827, 48.034 57.014 L 45 55.757 45 45 L 45 34.243 48.034 32.986 C 54.399 30.349, 57.330 23.118, 54.641 16.684 C 51.946 10.234, 43.153 7.044, 37.190 10.353 M 37.356 15.370 C 31.434 20.464, 35.256 30, 43.220 30 C 48.390 30, 52 26.505, 52 21.500 C 52 13.895, 43.303 10.255, 37.356 15.370 M 36.974 62.527 C 33.565 66.156, 33.734 71.515, 37.356 74.630 C 43.303 79.745, 52 76.105, 52 68.500 C 52 60.758, 42.270 56.890, 36.974 62.527" stroke="none" fill="#000000" fill-rule="evenodd"/>
</svg>