<svg xmlns="http://www.w3.org/2000/svg" width="90" height="90" viewBox="0 0 90 90" version="1.1">
	<path d="M 43 26.321 L 43 37.641 37.951 36.994 C 30.566 36.046, 28.917 33.937, 28.138 24.441 C 27.478 16.392, 25.690 13.583, 24.545 18.796 C 23.630 22.960, 25.618 33.915, 27.716 36.272 C 30.117 38.969, 35.164 41, 39.468 41 C 42.838 41, 43 41.161, 43 44.500 L 43 48 35.500 48 C 29.500 48, 28 48.300, 28 49.500 C 28 50.700, 29.500 51, 35.500 51 L 43 51 43 54.861 C 43 58.366, 42.785 58.682, 40.669 58.277 C 36.429 57.467, 30.252 59.838, 27.862 63.194 C 25.221 66.903, 23.808 82.208, 25.913 84.313 C 27.863 86.263, 28.968 83.166, 28.985 75.700 C 29.009 65.060, 31.264 62, 39.082 62 L 43 62 43 73 C 43 83.333, 43.121 84, 45 84 C 46.879 84, 47 83.333, 47 73 L 47 62 50.918 62 C 58.736 62, 60.991 65.060, 61.015 75.700 C 61.032 83.166, 62.137 86.263, 64.087 84.313 C 66.192 82.208, 64.779 66.903, 62.138 63.194 C 59.748 59.838, 53.571 57.467, 49.331 58.277 C 47.215 58.682, 47 58.366, 47 54.861 L 47 51 54.500 51 C 60.500 51, 62 50.700, 62 49.500 C 62 48.300, 60.500 48, 54.500 48 L 47 48 47 44.500 C 47 41.161, 47.162 41, 50.532 41 C 54.836 41, 59.883 38.969, 62.284 36.272 C 64.382 33.915, 66.370 22.960, 65.455 18.796 C 64.310 13.583, 62.522 16.392, 61.862 24.441 C 61.083 33.937, 59.434 36.046, 52.049 36.994 L 47 37.641 47 26.321 C 47 15.667, 46.882 15, 45 15 C 43.118 15, 43 15.667, 43 26.321" stroke="none" fill="#000000" fill-rule="evenodd"/>
</svg>