<svg xmlns="http://www.w3.org/2000/svg" width="150" height="150" viewBox="0 0 150 150" version="1.1">
	<g transform="translate(75 75) scale(1.45) translate(-41.97 -72.65)">
		<path stroke="none" fill="#000000" fill-rule="evenodd" d="M 40.297 48.250 C 39.117 49.805, 31.401 77.437, 29.950 85.302 C 29.172 89.520, 29.187 92.037, 30.006 94.519 C 33.772 105.931, 50.228 105.931, 53.994 94.519 C 55.400 90.258, 54.471 84.871, 48.816 64.500 C 44.799 50.033, 43.618 47, 42 47 C 41.585 47, 40.818 47.563, 40.297 48.250 M 38.220 71.795 C 33.046 90.749, 34.126 98.333, 42 98.333 C 49.874 98.333, 50.954 90.749, 45.780 71.795 C 44.009 65.308, 42.308 60, 42 60 C 41.692 60, 39.991 65.308, 38.220 71.795"/>
	</g>
</svg>
