<svg xmlns="http://www.w3.org/2000/svg" width="70" height="70" viewBox="0 0 70 70" version="1.1">
	<path d="M 24.005 6.744 C 17.482 9.045, 8.813 18.036, 6.552 24.843 C 3.519 33.976, 5.059 44.602, 10.666 53.232 L 12.441 55.964 8.536 59.964 C 3.148 65.481, 4.872 66.277, 10.730 60.976 C 13.353 58.602, 15.624 56.574, 15.777 56.470 C 15.929 56.365, 14.499 53.970, 12.599 51.147 C 1.206 34.218, 9.943 12.060, 29.622 7.975 C 54.021 2.909, 71.540 30.137, 57.401 51.147 C 55.501 53.970, 54.071 56.365, 54.223 56.470 C 54.376 56.574, 56.647 58.602, 59.270 60.976 C 65.133 66.281, 66.850 65.479, 61.457 59.956 C 58.099 56.517, 57.721 55.703, 58.796 54.224 C 76.859 29.380, 52.821 -3.424, 24.005 6.744" stroke="none" fill="#000000" fill-rule="evenodd"/>
</svg>