<svg xmlns="http://www.w3.org/2000/svg" width="70" height="70" viewBox="0 0 70 70" version="1.1">
	<path d="M 34 16 L 34 21 27.548 21 L 21.095 21 20.798 27.250 L 20.500 33.500 15.750 33.805 C 9.384 34.213, 9.662 36, 16.091 36 L 21.182 36 20.841 42.676 L 20.500 49.351 27.250 49.107 L 34 48.862 34 53.931 C 34 56.719, 34.450 59, 35 59 C 35.550 59, 36 56.750, 36 54 L 36 49 42.500 49 L 49 49 49 42.500 L 49 36 54 36 C 60.362 36, 60.566 34.210, 54.250 33.805 L 49.500 33.500 49.202 27.250 L 48.905 21 42.452 21 L 36 21 36 16 C 36 13.250, 35.550 11, 35 11 C 34.450 11, 34 13.250, 34 16 M 23.423 24.340 C 23.117 25.137, 23.009 27.524, 23.183 29.645 L 23.500 33.500 28.500 33.500 L 33.500 33.500 33.500 28.500 L 33.500 23.500 28.740 23.195 C 25.292 22.974, 23.826 23.289, 23.423 24.340 M 36.423 24.340 C 36.117 25.137, 36.009 27.524, 36.183 29.645 L 36.500 33.500 41.500 33.500 L 46.500 33.500 46.500 28.500 L 46.500 23.500 41.740 23.195 C 38.292 22.974, 36.826 23.289, 36.423 24.340 M 23.713 36.621 C 23.321 37.013, 23 39.232, 23 41.553 L 23 45.773 27.621 46.466 C 33.302 47.318, 34.216 46.495, 33.814 40.886 L 33.500 36.500 28.963 36.204 C 26.467 36.041, 24.105 36.229, 23.713 36.621 M 36.196 41.196 L 36.500 46.500 41.500 46.500 L 46.500 46.500 46.500 41.500 L 46.500 36.500 41.196 36.196 L 35.892 35.892 36.196 41.196" stroke="none" fill="#000000" fill-rule="evenodd"/>
</svg>