<svg xmlns="http://www.w3.org/2000/svg" width="150" height="150" viewBox="0 0 150 150" version="1.1">
	<path d="M 70.297 21.039 C 57.900 23.519, 49.783 33.696, 49.834 46.694 C 49.886 59.874, 53.191 63.736, 78.631 80.349 C 91.015 88.436, 94.624 92.312, 95.556 98.522 C 97.061 108.560, 93.728 116.504, 85.814 121.741 C 80.616 125.181, 68.773 125.688, 63.255 122.707 C 59.491 120.673, 55 112.669, 55 107.993 C 55 100.508, 61.433 93.277, 67.003 94.501 C 74.097 96.059, 75.845 101.829, 70.923 107.435 C 66.131 112.893, 69.294 115.434, 74.333 110.175 C 82.467 101.684, 78.009 91.062, 65.945 90.190 C 60.125 89.769, 59.872 89.855, 56.493 93.439 C 46.634 103.893, 49.856 121.510, 62.663 127.175 C 80.435 135.036, 100.433 122.474, 100.352 103.500 C 100.295 90.274, 95.987 85.226, 71.420 69.590 C 56.613 60.167, 53.191 55.128, 54.300 44.383 C 56.718 20.954, 92.158 17.476, 94.743 40.413 C 96.098 52.437, 84.548 60.597, 77.984 52.253 C 75.250 48.777, 75.490 46.651, 79.077 42.565 C 80.770 40.637, 81.868 38.596, 81.518 38.030 C 79.148 34.195, 72 42.072, 72 48.519 C 72 55.467, 75.881 59.219, 83.649 59.781 C 91.173 60.325, 94.865 57.650, 97.944 49.421 C 100.576 42.384, 100.521 39.647, 97.623 33.500 C 92.849 23.377, 82.407 18.616, 70.297 21.039 M 127.521 27.621 C 124.047 31.096, 128.744 36.269, 132.796 33.430 C 135.395 31.610, 135.597 29.740, 133.429 27.571 C 131.420 25.563, 129.564 25.579, 127.521 27.621 M 16.521 28.621 C 13.047 32.096, 17.744 37.269, 21.796 34.430 C 24.395 32.610, 24.597 30.740, 22.429 28.571 C 20.420 26.563, 18.564 26.579, 16.521 28.621 M 122.193 49.250 C 120.639 52.688, 117.633 59.888, 115.514 65.250 L 111.662 75 115.504 84.750 C 121.958 101.134, 124.831 107, 126.399 107 C 129.302 107, 128.952 105.029, 124.068 93.857 C 121.348 87.635, 119.279 82.388, 119.470 82.196 C 119.662 82.005, 124.243 84.808, 129.651 88.424 C 135.060 92.041, 140.309 95, 141.316 95 C 145.234 95, 142.190 91.434, 133.062 85.333 C 119.611 76.342, 119.568 76.680, 134.053 77.483 C 144.870 78.082, 146.789 77.959, 147.926 76.589 C 150.967 72.925, 147.814 72.016, 134.153 72.617 C 119.536 73.260, 119.579 73.591, 133.127 64.665 C 142.062 58.777, 145.294 55, 141.397 55 C 140.435 55, 135.187 57.960, 129.735 61.578 C 124.283 65.196, 119.659 67.992, 119.458 67.791 C 119.257 67.590, 121.342 62.370, 124.091 56.190 C 126.840 50.009, 128.817 44.514, 128.485 43.976 C 127.020 41.606, 124.814 43.455, 122.193 49.250 M 21.515 44.976 C 21.183 45.514, 23.160 51.009, 25.909 57.190 C 28.658 63.370, 30.743 68.590, 30.542 68.791 C 30.341 68.992, 25.717 66.196, 20.265 62.578 C 14.813 58.960, 9.565 56, 8.603 56 C 4.706 56, 7.938 59.777, 16.873 65.665 C 30.421 74.591, 30.464 74.260, 15.847 73.617 C 2.186 73.016, -0.967 73.925, 2.074 77.589 C 3.211 78.959, 5.130 79.082, 15.947 78.483 C 30.432 77.680, 30.389 77.342, 16.938 86.333 C 7.810 92.434, 4.766 96, 8.684 96 C 9.691 96, 14.940 93.041, 20.349 89.424 C 25.757 85.808, 30.338 83.005, 30.530 83.196 C 30.721 83.388, 28.652 88.635, 25.932 94.857 C 21.048 106.029, 20.698 108, 23.601 108 C 25.169 108, 28.042 102.134, 34.496 85.750 L 38.338 76 34.486 66.250 C 26.362 45.689, 23.736 41.382, 21.515 44.976 M 127.040 117.452 C 124.482 120.534, 128.377 124.944, 132.321 123.430 C 136.370 121.877, 134.930 116, 130.500 116 C 129.260 116, 127.703 116.653, 127.040 117.452 M 16.040 118.452 C 13.482 121.534, 17.377 125.944, 21.321 124.430 C 25.370 122.877, 23.930 117, 19.500 117 C 18.260 117, 16.703 117.653, 16.040 118.452" stroke="none" fill="#000000" fill-rule="evenodd"/>
</svg>