<svg xmlns="http://www.w3.org/2000/svg" width="70" height="70" viewBox="0 0 70 70" version="1.1">
	<path d="M 32.912 10.750 C 31.671 14.034, 27.133 19, 25.372 19 C 24.682 19, 23.799 19.516, 23.410 20.146 C 21.785 22.776, 28.671 19.749, 31.750 16.480 L 35 13.029 38.250 16.480 C 41.329 19.749, 48.215 22.776, 46.590 20.146 C 46.201 19.516, 45.318 19, 44.628 19 C 42.867 19, 38.329 14.034, 37.088 10.750 C 36.517 9.238, 35.577 8, 35 8 C 34.423 8, 33.483 9.238, 32.912 10.750 M 11.475 18.026 L 8.576 21.052 8.576 35.045 L 8.576 49.037 11.756 52.217 C 15.591 56.053, 17.456 55.138, 13.748 51.240 C 10.882 48.226, 9.288 43.558, 10.806 42.620 C 11.338 42.291, 12.329 42.692, 13.009 43.511 C 14.191 44.935, 17 45.598, 17 44.452 C 17 44.151, 15.762 42.806, 14.250 41.463 L 11.500 39.022 14 37.011 L 16.500 35 14 32.989 L 11.500 30.978 14.250 28.537 C 15.762 27.194, 17 25.849, 17 25.548 C 17 24.398, 14.189 25.067, 13 26.500 C 10.902 29.028, 9.702 28.239, 10.393 24.786 C 10.746 23.019, 12.153 20.406, 13.518 18.981 C 14.883 17.556, 16 16.078, 16 15.695 C 16 14.223, 14.259 15.120, 11.475 18.026 M 54 15.943 C 54 16.462, 54.867 17.494, 55.927 18.236 C 58.472 20.019, 60.427 24.444, 59.611 26.572 C 59.006 28.148, 58.826 28.153, 57.150 26.636 C 53.862 23.660, 52.505 24.874, 55.558 28.061 L 58.491 31.121 55.995 33.061 L 53.500 35 56 37.011 L 58.500 39.022 55.750 41.463 C 54.237 42.806, 53 44.151, 53 44.452 C 53 45.602, 55.811 44.933, 57 43.500 C 59.098 40.972, 60.298 41.761, 59.607 45.214 C 59.254 46.981, 57.768 49.677, 56.305 51.203 C 52.598 55.073, 54.357 56.105, 58.167 52.295 L 61.270 49.192 61.500 35.846 C 61.682 25.276, 61.410 21.980, 60.190 20 C 57.804 16.127, 54 13.633, 54 15.943 M 4 29.878 C 4 31.156, 6.940 33.393, 7.667 32.667 C 8.393 31.940, 6.156 29, 4.878 29 C 4.395 29, 4 29.395, 4 29.878 M 63.131 30.342 C 62.519 31.080, 62.310 31.976, 62.667 32.333 C 63.417 33.084, 66 31.181, 66 29.878 C 66 28.561, 64.393 28.821, 63.131 30.342 M 2 35 C 2 35.550, 3.125 36, 4.500 36 C 5.875 36, 7 35.550, 7 35 C 7 34.450, 5.875 34, 4.500 34 C 3.125 34, 2 34.450, 2 35 M 11 35 C 11 35.550, 11.450 36, 12 36 C 12.550 36, 13 35.550, 13 35 C 13 34.450, 12.550 34, 12 34 C 11.450 34, 11 34.450, 11 35 M 57 35 C 57 35.550, 57.450 36, 58 36 C 58.550 36, 59 35.550, 59 35 C 59 34.450, 58.550 34, 58 34 C 57.450 34, 57 34.450, 57 35 M 63 35 C 63 35.550, 64.125 36, 65.500 36 C 66.875 36, 68 35.550, 68 35 C 68 34.450, 66.875 34, 65.500 34 C 64.125 34, 63 34.450, 63 35 M 4.971 38.535 C 3.234 40.628, 4.682 41.746, 6.620 39.809 C 7.555 38.874, 7.794 37.991, 7.209 37.629 C 6.669 37.295, 5.662 37.703, 4.971 38.535 M 62 37.878 C 62 39.156, 64.940 41.393, 65.667 40.667 C 66.393 39.940, 64.156 37, 62.878 37 C 62.395 37, 62 37.395, 62 37.878" stroke="none" fill="#000000" fill-rule="evenodd"/>
</svg>