<svg xmlns="http://www.w3.org/2000/svg" width="500" height="500" viewBox="0 0 500 500" version="1.1">
	<path d="M 246.243 106.157 C 245.290 107.110, 244.993 117.811, 244.970 151.950 L 244.939 196.500 211.361 220.500 C 192.894 233.700, 177.333 244.667, 176.781 244.870 C 176.230 245.074, 160.626 230.111, 142.106 211.620 C 123.585 193.129, 107.675 178, 106.751 178 C 105.826 178, 103.591 179.292, 101.785 180.871 C 99.978 182.450, 89.500 191.055, 78.500 199.992 C 67.500 208.930, 58.135 216.872, 57.689 217.641 C 56.498 219.697, 57.798 222.801, 60.165 223.552 C 62.671 224.348, 62.967 224.137, 87.371 204.198 L 106.242 188.778 116.121 198.620 C 121.554 204.034, 126 208.827, 126 209.271 C 126 209.716, 119.025 217.216, 110.500 225.937 C 94.842 241.955, 93.731 243.589, 96.571 246.429 C 99.525 249.382, 101.489 247.983, 117.174 231.750 L 132.876 215.500 143.663 226.231 L 154.449 236.961 140.225 251.308 C 125.893 265.763, 124.703 267.561, 127.571 270.429 C 130.479 273.336, 132.424 272.051, 146.729 257.771 L 160.984 243.542 167.269 249.771 C 170.726 253.197, 174.323 256, 175.264 256 C 176.205 256, 192.015 245.200, 210.397 232 C 228.779 218.800, 244.085 208, 244.410 208 C 244.734 208, 244.991 232.188, 244.979 261.750 L 244.959 315.500 215.006 340 C 198.531 353.475, 184.769 365.340, 184.422 366.368 C 183.408 369.367, 187.301 372.656, 190.208 371.256 C 191.468 370.649, 204.200 360.493, 218.500 348.687 L 244.500 327.222 245 365.648 C 245.518 405.456, 245.575 405.969, 249.500 405.969 C 253.428 405.969, 253.482 405.485, 254 365.163 L 254.500 326.252 282.307 349.126 C 297.601 361.707, 310.731 372, 311.485 372 C 313.300 372, 316 369.238, 316 367.381 C 316 365.416, 315.468 364.947, 282.555 337.921 L 254.033 314.500 254.016 260.750 C 254.007 231.188, 254.218 207, 254.484 207 C 254.750 207, 270.309 218.025, 289.061 231.500 C 307.812 244.975, 323.895 256, 324.800 256 C 325.705 256, 329.267 253.204, 332.715 249.787 L 338.984 243.574 353.320 257.787 C 367.364 271.712, 370.076 273.524, 372.800 270.800 C 375.524 268.076, 373.711 265.364, 359.775 251.308 L 345.551 236.961 356.337 226.231 L 367.124 215.500 382.826 231.750 C 398.511 247.983, 400.475 249.382, 403.429 246.429 C 406.269 243.589, 405.158 241.955, 389.500 225.937 C 380.975 217.216, 374 209.716, 374 209.271 C 374 208.827, 378.453 204.026, 383.896 198.604 L 393.791 188.745 415.470 206.373 C 427.394 216.068, 437.759 224, 438.503 224 C 441.550 224, 443.869 219.881, 442.235 217.372 C 440.644 214.930, 394.576 178, 393.120 178 C 392.266 178, 376.415 193.129, 357.894 211.620 C 339.374 230.111, 323.794 245.074, 323.272 244.870 C 322.751 244.667, 306.951 233.477, 288.162 220.004 L 254 195.507 254 158.083 L 254 120.658 268.786 136.079 C 276.919 144.561, 285.741 153.847, 288.391 156.716 C 294.228 163.034, 296.490 163.955, 299.292 161.153 C 302.289 158.156, 302.106 157.917, 275.628 130.352 C 252.298 106.064, 249.028 103.372, 246.243 106.157" stroke="none" fill="#000000" fill-rule="evenodd"/>
</svg>