<svg xmlns="http://www.w3.org/2000/svg" width="500" height="500" viewBox="0 0 500 500" version="1.1">
	<path d="M 190.547 139.948 C 188.729 141.957, 187.379 153.468, 188.534 157.108 C 189.818 161.152, 197 159.577, 197 155.252 C 197 154.461, 200.375 157.948, 204.500 163 C 208.625 168.052, 212 172.628, 212 173.167 C 212 173.707, 203.563 183.756, 193.250 195.498 L 174.500 216.846 169 216.920 L 163.500 216.994 158.101 207.017 C 152.812 197.244, 150.905 195.332, 147.679 196.570 C 144.450 197.809, 144.770 200.896, 148.925 208.600 C 151.166 212.754, 153 216.344, 153 216.577 C 153 216.810, 149.447 217, 145.104 217 L 137.208 217 129.682 209 C 122.320 201.175, 119.670 199.730, 117.200 202.200 C 114.951 204.449, 115.995 207.426, 120.712 212.216 L 125.425 217 110.912 217 C 95.684 217, 94 217.448, 94 221.500 C 94 225.927, 94.605 226, 131.287 226 L 166.175 226 155.087 238.446 C 138.413 257.164, 138.270 257, 171.220 257 L 196.041 257 194.098 260.750 C 189.971 268.714, 174.943 280.922, 159.827 288.591 C 152.883 292.113, 130.563 294.008, 120 291.971 C 104.059 288.897, 84.901 279.848, 77.365 271.834 C 57.142 250.329, 55.911 212.977, 74.760 192.826 C 78.879 188.422, 79.199 187.733, 78.174 185.483 C 74.393 177.185, 62.187 190.083, 55.445 209.500 C 48.345 229.948, 53.998 257.332, 69.272 276.474 C 77.036 286.205, 100.213 297.412, 119.987 300.998 C 128.874 302.609, 154.469 300.771, 160.542 298.085 C 181.366 288.873, 203.951 268.686, 203.991 259.250 L 204 257 242.250 257.014 L 280.500 257.027 289.250 267.880 C 294.063 273.849, 298 279.327, 298 280.053 C 298 280.779, 295.226 291.260, 291.836 303.345 L 285.672 325.316 287.980 327.185 C 292.259 330.650, 293.986 328.105, 298.697 311.391 C 301.006 303.201, 303.481 294.598, 304.197 292.274 L 305.500 288.048 311.250 295.182 C 317.961 303.507, 317.864 302.697, 314 318 C 310.500 331.864, 310.543 331.400, 312.571 333.429 C 316.626 337.483, 319.001 334.700, 321.978 322.406 L 324.580 311.664 343.040 334.568 C 363.630 360.114, 364.414 361, 366.429 361 C 368.229 361, 371 358.286, 371 356.522 C 371 355.787, 362.210 344.284, 351.467 330.959 C 340.724 317.634, 332.157 306.510, 332.429 306.238 C 332.701 305.966, 337.239 306.287, 342.514 306.951 C 353.022 308.273, 355 307.727, 355 303.500 C 355 299.919, 353.363 299.349, 338 297.591 L 323.500 295.931 320.211 292.216 C 313.502 284.636, 312.963 285, 330.893 285 C 347.379 285, 350 284.383, 350 280.500 C 350 276.465, 347.622 276, 326.967 276 L 307.077 276 299.617 266.750 L 292.157 257.500 333.811 257.239 L 375.464 256.978 384.125 265.739 L 392.787 274.500 400.024 307.500 C 404.005 325.650, 407.727 341.085, 408.295 341.801 C 410.629 344.737, 414.649 341.679, 440.885 317 C 467.854 291.633, 470.158 288.896, 466.750 286.288 C 466.063 285.762, 450.650 281.335, 432.500 276.451 L 399.500 267.570 389.354 257.785 L 379.208 248 361.104 248 C 351.147 248, 343 247.748, 343 247.439 C 343 247.131, 346.622 242.406, 351.049 236.939 L 359.098 227 391.478 227 C 425.223 227, 427.038 226.779, 426.985 222.679 C 426.932 218.637, 426.145 218.518, 395.954 218 L 366.833 217.500 379.416 201.702 C 392.430 185.365, 393.063 184.206, 390.429 181.571 C 386.939 178.082, 387.181 177.868, 368.826 200.716 C 360.350 211.268, 354.272 217.985, 353.221 217.960 C 352.112 217.935, 349.009 213.789, 344.500 206.310 C 336.945 193.778, 335.073 191.837, 332.250 193.607 C 329.084 195.592, 329.719 198.755, 335.088 207.747 C 337.963 212.561, 340.495 216.838, 340.716 217.250 C 340.937 217.662, 337.829 217.976, 333.809 217.947 L 326.500 217.895 319.984 209.197 C 314.342 201.666, 313.069 200.500, 310.484 200.500 C 305.679 200.500, 305.851 204.797, 310.927 211.520 C 313.167 214.487, 315 217.158, 315 217.457 C 315 217.756, 310.590 218, 305.200 218 C 294.895 218, 293 218.699, 293 222.500 C 293 226.824, 294.103 227, 321.200 227 C 335.390 227, 347 227.252, 347 227.561 C 347 227.869, 343.378 232.594, 338.951 238.061 L 330.902 248 307.663 248 L 284.424 248 263.693 222.250 L 242.962 196.500 256.112 196 C 267.947 195.550, 269.398 195.295, 270.618 193.454 C 271.773 191.710, 271.745 191.081, 270.430 189.204 C 268.943 187.081, 268.271 187, 252.064 187 L 235.241 187 231.554 182.500 L 227.866 178 247.278 178 C 264.814 178, 266.850 177.823, 268.345 176.171 C 270.466 173.828, 270.430 172.700, 268.171 170.655 C 266.586 169.220, 263.294 168.992, 243.421 168.943 L 220.500 168.886 215.750 163.039 C 213.137 159.823, 211 156.923, 211 156.596 C 211 156.268, 219.675 156, 230.277 156 C 250.207 156, 254 155.283, 254 151.515 C 254 147.396, 251.784 147, 228.729 147 C 211.517 147, 206.867 146.733, 207.800 145.800 C 209.637 143.963, 209.228 140.192, 207.066 139.035 C 203.519 137.137, 192.542 137.744, 190.547 139.948 M 215.895 182.889 C 215.128 183.966, 208.059 192.081, 200.187 200.924 L 185.873 217 216.995 217 L 248.116 217 233.808 199.327 C 225.939 189.607, 219.003 181.491, 218.395 181.292 C 217.788 181.093, 216.663 181.811, 215.895 182.889 M 168.225 236.823 L 158.951 247.500 187.475 247.765 C 203.164 247.911, 228.773 247.911, 244.384 247.765 L 272.768 247.500 264.134 236.770 L 255.500 226.040 216.500 226.093 L 177.500 226.146 168.225 236.823 M 424.930 293.310 L 438.360 306.887 446.180 299.838 C 450.481 295.960, 454 292.488, 454 292.122 C 454 291.756, 445.151 289.061, 434.335 286.133 C 423.519 283.206, 413.956 280.568, 413.085 280.271 C 412.213 279.974, 417.543 285.842, 424.930 293.310 M 408.661 305.661 C 411.061 316.572, 413.357 326.471, 413.763 327.657 C 414.438 329.632, 415.228 329.118, 423.151 321.544 L 431.801 313.275 418.048 299.548 L 404.296 285.822 408.661 305.661" stroke="none" fill="#000000" fill-rule="evenodd"/>
</svg>