<svg xmlns="http://www.w3.org/2000/svg" width="150" height="150" viewBox="0 0 150 150" version="1.1">
	<path d="M 32.685 36.378 C 31.485 39.504, 34.293 40, 53.200 40 C 70.436 40, 72 40.146, 72.005 41.750 C 72.008 42.712, 72.304 58.012, 72.663 75.750 C 73.023 93.488, 72.971 108, 72.549 108 C 72.127 108, 63.971 102.267, 54.425 95.260 L 37.067 82.520 47.034 73.178 C 56.755 64.066, 59.632 59.421, 55.086 60.180 C 52.629 60.591, 30.759 81.778, 31.256 83.267 C 31.632 84.395, 73.868 116, 75 116 C 76.132 116, 118.368 84.395, 118.744 83.267 C 119.241 81.778, 97.371 60.591, 94.914 60.180 C 90.368 59.421, 93.245 64.066, 102.966 73.178 L 112.933 82.520 95.575 95.260 C 86.029 102.267, 77.873 108, 77.451 108 C 77.029 108, 76.977 93.487, 77.337 75.750 C 77.696 58.012, 77.992 42.712, 77.995 41.750 C 78 40.146, 79.564 40, 96.800 40 C 115.707 40, 118.515 39.504, 117.315 36.378 C 116.528 34.327, 33.472 34.327, 32.685 36.378 M 15.536 65.960 C 11.460 70.464, 17.536 76.540, 22.040 72.464 C 24.493 70.244, 24.540 67.798, 22.171 65.655 C 19.758 63.471, 17.704 63.565, 15.536 65.960 M 127.655 65.829 C 125.471 68.242, 125.565 70.296, 127.960 72.464 C 132.464 76.540, 138.540 70.464, 134.464 65.960 C 132.244 63.507, 129.798 63.460, 127.655 65.829" stroke="none" fill="#000000" fill-rule="evenodd"/>
</svg>