<svg xmlns="http://www.w3.org/2000/svg" width="150" height="150" viewBox="0 0 150 150" version="1.1">
	<path d="M 73.673 38.470 C 72.912 39.231, 68.591 46.388, 64.071 54.374 L 55.854 68.893 48.917 64.447 C 41.384 59.618, 39 58.991, 39 61.839 C 39 63.031, 41.463 65.224, 46 68.071 C 49.850 70.487, 53 72.778, 53 73.163 C 53 73.547, 49.168 80.501, 44.484 88.615 C 39.265 97.656, 36.326 103.726, 36.893 104.293 C 37.402 104.802, 45.622 105.282, 55.159 105.359 L 72.500 105.500 72.788 114.750 C 73.047 123.114, 73.260 124, 75 124 C 76.740 124, 76.953 123.114, 77.212 114.750 L 77.500 105.500 95.343 105.357 C 105.157 105.278, 113.602 104.798, 114.109 104.291 C 114.673 103.727, 111.701 97.597, 106.468 88.531 C 101.757 80.371, 98.118 73.136, 98.380 72.453 C 98.642 71.770, 101.588 69.525, 104.928 67.464 C 108.834 65.053, 111 63.053, 111 61.858 C 111 59.052, 108.777 59.585, 101.524 64.133 C 97.899 66.406, 94.795 68.093, 94.627 67.883 C 94.460 67.672, 90.566 60.878, 85.975 52.785 C 77.390 37.652, 76.050 36.093, 73.673 38.470 M 59.985 71.236 C 51.468 86.141, 44.355 98.935, 44.177 99.668 C 43.913 100.756, 49.633 101, 75.427 101 C 93.244 101, 107 100.612, 107 100.109 C 107 99.478, 76.943 46.058, 75.609 44.318 C 75.532 44.218, 68.501 56.331, 59.985 71.236" stroke="none" fill="#000000" fill-rule="evenodd"/>
</svg>