<svg xmlns="http://www.w3.org/2000/svg" width="500" height="500" viewBox="0 0 500 500" version="1.1">
	<path d="M 247.223 44.557 L 245 46.113 245 99.436 L 245 152.759 240.750 156.214 C 236.906 159.339, 168.993 208.755, 164.417 211.757 C 158.801 215.441, 160.738 215.885, 108.656 198.970 C 59.062 182.864, 55.029 181.876, 53.642 185.490 C 51.724 190.488, 52.062 190.635, 105.542 208.047 C 155.479 224.305, 156.380 224.645, 157.255 227.547 C 157.745 229.171, 158.563 231.400, 159.072 232.500 C 160.201 234.938, 186.513 316.426, 187.377 320.157 C 187.715 321.619, 188.239 323.458, 188.541 324.246 C 188.862 325.083, 184.575 331.864, 178.208 340.589 C 125.005 413.491, 124.960 413.560, 128.200 416.800 C 132.090 420.690, 130.742 422.302, 176.369 359.158 C 181.797 351.646, 188.673 342.234, 191.649 338.241 L 197.061 330.983 250.204 331.241 L 303.347 331.500 334.174 373.948 C 351.128 397.294, 365 416.757, 365 417.198 C 365 418.456, 370.464 418.136, 371.800 416.800 C 374.575 414.025, 372.044 409.936, 341.887 368.473 L 310.775 325.696 311.958 321.598 C 314.305 313.475, 339.996 234.383, 341.875 229.500 L 343.798 224.500 370.649 215.768 C 385.417 210.966, 408.236 203.556, 421.357 199.301 C 441.553 192.753, 445.348 191.216, 446.079 189.291 C 448.358 183.297, 443.858 181.906, 433.295 185.339 C 416.115 190.923, 350.199 212.283, 345.785 213.697 C 341.259 215.147, 340.920 215.115, 337.285 212.896 C 332.537 209.997, 269.695 164.430, 261.250 157.762 L 255 152.828 255 99.471 L 255 46.113 252.777 44.557 C 251.555 43.701, 250.305 43, 250 43 C 249.695 43, 248.445 43.701, 247.223 44.557 M 209 193.668 C 180.179 214.675, 168.592 223.666, 168.820 224.844 C 168.996 225.755, 172.230 235.950, 176.006 247.500 C 179.782 259.050, 186.613 280.087, 191.186 294.249 L 199.500 319.998 249.966 319.749 L 300.433 319.500 316.074 271.500 C 324.677 245.100, 331.667 223.450, 331.608 223.389 C 331.012 222.773, 249.918 164.019, 249.740 164.074 C 249.608 164.115, 231.275 177.432, 209 193.668" stroke="none" fill="#000000" fill-rule="evenodd"/>
</svg>