<svg xmlns="http://www.w3.org/2000/svg" width="500" height="500" viewBox="0 0 500 500" version="1.1">
	<path d="M 33.408 84.500 C 31.891 86.816, 31.891 87.184, 33.408 89.500 L 35.046 92 58.023 92 L 81 92 81.243 110.750 C 81.692 145.389, 82.300 140.898, 75.260 155 C 67.878 169.788, 66.656 174.837, 67.160 188.462 C 68.147 215.119, 87.414 230.620, 120.002 230.973 L 122.504 231 122.145 253.402 C 121.726 279.556, 122.682 288.507, 127.527 303.810 C 131.141 315.220, 136.840 324.700, 142.199 328.211 C 150.588 333.707, 144.890 339.628, 115 356.472 C 84.722 373.535, 74.438 385.114, 74.563 402 C 74.666 415.918, 80.733 425.794, 92.500 431.202 L 97.500 433.500 246.907 433.763 C 385.217 434.006, 396.451 433.902, 398.157 432.358 C 400.500 430.238, 400.505 427.767, 398.171 425.655 C 396.487 424.131, 384.828 424, 250.830 424 C 92.847 424, 99.943 424.245, 92.454 418.533 C 88.398 415.439, 86.724 412.439, 85.029 405.226 C 83.307 397.903, 86.344 391.755, 96.324 382.357 C 103.491 375.609, 108.264 372.505, 130.912 359.868 C 157.525 345.018, 162.787 332.788, 148.496 319 C 140.904 311.676, 135.243 297.555, 132.891 280.076 C 131.703 271.254, 132.129 236.866, 133.464 233.750 C 134.117 232.226, 135.722 232, 145.879 232 C 169.672 232, 185.048 223.521, 194.952 204.939 C 200.300 194.905, 201.536 188.682, 203.531 161.750 L 204.180 153 242.519 153 L 280.859 153 280.679 189.250 L 280.500 225.500 285.251 235.206 C 290.712 246.363, 298.235 254.889, 305.422 258.069 C 309.724 259.971, 337.994 261.085, 404.529 261.973 C 406.541 262, 406.526 262.355, 402.824 303.250 C 400.771 325.938, 399.070 347.515, 399.045 351.201 C 398.948 365.577, 395.434 372.842, 386.737 376.647 C 382.816 378.362, 378.534 378.522, 329.375 378.791 L 276.251 379.082 273.285 376.586 C 267.814 371.983, 261 354.941, 261 345.861 C 261 341.866, 258.947 339, 256.084 339 C 243.556 339, 255.395 379.948, 270.125 387.565 C 273.684 389.405, 377.521 389.703, 386.201 387.898 C 400.301 384.965, 409.081 373.251, 408.962 357.532 C 408.941 354.764, 414.193 293.100, 420.634 220.500 C 427.074 147.900, 432.034 87.269, 431.657 85.765 C 430.745 82.136, 426.564 80.963, 424.006 83.619 C 422.422 85.264, 421.286 95.837, 414.944 168 C 410.956 213.375, 407.425 250.814, 407.097 251.197 C 406.769 251.581, 385.703 251.485, 360.285 250.986 C 317.440 250.143, 313.791 249.934, 310.240 248.123 C 300.696 243.253, 291.123 227.348, 290.225 214.868 C 289.963 211.220, 290.081 195.826, 290.487 180.658 L 291.225 153.080 298.758 152.790 C 307.379 152.458, 309.139 151.142, 307.438 146.303 L 306.452 143.500 252.305 143.241 L 198.159 142.983 196.171 145.509 C 194.634 147.464, 194.039 150.240, 193.544 157.768 C 191.234 192.924, 186.698 204.941, 172.041 214.736 C 161.054 222.078, 149.367 223.341, 118.179 220.554 C 100.408 218.966, 92.928 216.093, 85.924 208.162 C 74.217 194.906, 74.040 181.471, 85.277 159.126 L 91.500 146.751 91.143 119.376 L 90.786 92 140.238 92 C 186.876 92, 189.784 91.896, 191.345 90.171 C 193.496 87.794, 193.440 85.709, 191.171 83.655 C 189.503 82.145, 182.578 82, 112.194 82 L 35.046 82 33.408 84.500" stroke="none" fill="#000000" fill-rule="evenodd"/>
</svg>