<svg xmlns="http://www.w3.org/2000/svg" width="500" height="500" viewBox="0 0 500 500" version="1.1">
	<path d="M 90.200 119.200 C 89.540 119.860, 89 121.120, 89 122 C 89 125.694, 90.849 126, 113.141 126 C 125.099 126, 135.088 126.338, 135.339 126.750 C 135.591 127.162, 134.726 144.150, 133.418 164.500 C 123.121 324.649, 120.117 374.141, 120.613 375.433 C 121.939 378.890, 127.664 378.315, 128.510 374.640 C 128.877 373.047, 133 313.342, 133 309.624 C 133 309.281, 154.118 309, 179.929 309 C 231.459 309, 230 309.174, 230 303.025 C 230 300.924, 243.127 252.061, 248.611 233.750 C 249.092 232.142, 251.236 232, 275.067 232 L 301 232 301 266.477 L 301 300.954 303.382 302.515 C 305.447 303.868, 310.368 304.037, 340.383 303.788 L 375.001 303.500 374.992 307 C 374.987 308.925, 375.689 324.900, 376.552 342.500 C 377.989 371.808, 378.284 374.639, 380.057 376.157 C 382.202 377.994, 385.563 377.582, 386.408 375.379 C 387.011 373.807, 380.329 228.856, 379.487 225.250 L 378.962 223 258.981 223 L 139 223 139.010 218.750 C 139.015 216.412, 140.355 193.818, 141.987 168.540 C 144.646 127.367, 144.799 122.342, 143.454 120.290 C 141.956 118.003, 141.918 118, 116.677 118 C 98.350 118, 91.070 118.330, 90.200 119.200 M 137.996 232.250 C 137.994 232.387, 137.100 246, 136.008 262.500 C 134.917 279, 134.018 294.188, 134.012 296.250 L 134 300 177.429 300 L 220.858 300 222.366 294.750 C 223.195 291.863, 227.319 277.163, 231.531 262.085 C 235.743 247.006, 239.420 234.069, 239.702 233.335 C 240.125 232.232, 231.314 232, 189.107 232 C 160.998 232, 137.998 232.113, 137.996 232.250 M 310 263.473 L 310 294.946 342.001 295.223 L 374.001 295.500 374.006 291 C 374.015 283.918, 371.964 240.967, 371.393 236.250 L 370.877 232 340.439 232 L 310 232 310 263.473 M 93.570 389.204 C 92.254 391.082, 92.227 391.709, 93.384 393.454 C 94.632 395.336, 95.905 395.522, 109.273 395.776 C 124.328 396.062, 127 395.418, 127 391.500 C 127 387.697, 124.288 387, 109.485 387 C 95.804 387, 95.039 387.106, 93.570 389.204 M 351.617 389.136 C 350.258 391.077, 350.224 391.705, 351.384 393.454 C 352.640 395.348, 353.896 395.520, 368.274 395.775 C 384.221 396.057, 387.034 395.441, 386.985 391.679 C 386.936 387.895, 385.393 387.506, 369.142 387.183 C 353.536 386.872, 353.175 386.912, 351.617 389.136" stroke="none" fill="#000000" fill-rule="evenodd"/>
</svg>