<svg xmlns="http://www.w3.org/2000/svg" width="150" height="150" viewBox="0 0 150 150" version="1.1">
	<path d="M 25.325 26.594 C 24.892 27.724, 28.984 32.466, 39.364 42.864 L 54.015 57.539 47.015 64.485 L 40.015 71.431 35.720 67.216 C 28.056 59.694, 24.691 63.053, 32.212 70.716 L 36.424 75.008 31.212 80.285 C 25.753 85.813, 24.952 87.661, 27.579 88.669 C 28.632 89.073, 30.969 87.487, 34.583 83.918 L 40.007 78.561 47.011 85.511 L 54.015 92.461 39.364 107.136 C 28.984 117.534, 24.892 122.276, 25.325 123.406 C 26.488 126.436, 28.534 124.941, 43.007 110.493 L 57.539 95.985 64.487 102.987 L 71.436 109.989 66.718 114.779 C 61.878 119.692, 60.670 123, 63.716 123 C 64.659 123, 67.584 120.879, 70.216 118.288 L 75 113.575 79.750 118.169 C 87.392 125.559, 90.254 121.892, 82.784 114.280 L 78.569 109.985 85.515 102.985 L 92.461 95.985 107.136 110.636 C 117.534 121.016, 122.276 125.108, 123.406 124.675 C 126.436 123.512, 124.941 121.466, 110.493 106.993 L 95.985 92.461 102.985 85.515 L 109.985 78.569 114.280 82.784 C 121.903 90.266, 125.619 87.714, 118.376 79.971 L 113.649 74.918 118.825 69.677 C 124.248 64.186, 125.044 62.338, 122.421 61.331 C 121.368 60.927, 119.031 62.513, 115.417 66.082 L 109.993 71.439 102.989 64.489 L 95.985 57.539 110.493 43.007 C 124.239 29.238, 127.244 25, 123.262 25 C 122.306 25, 114.985 31.528, 106.993 39.507 L 92.461 54.015 85.513 47.013 L 78.564 40.011 83.282 35.221 C 88.122 30.308, 89.330 27, 86.284 27 C 85.341 27, 82.416 29.121, 79.784 31.712 L 75 36.425 70.250 31.831 C 62.608 24.441, 59.746 28.108, 67.216 35.720 L 71.431 40.015 64.485 47.015 L 57.539 54.015 43.007 39.507 C 28.534 25.059, 26.488 23.564, 25.325 26.594 M 67.722 50.776 L 60.998 57.552 67.999 64.499 L 75 71.446 82.001 64.499 L 89.002 57.552 82.278 50.776 C 78.579 47.049, 75.305 44, 75 44 C 74.695 44, 71.421 47.049, 67.722 50.776 M 50.500 68 L 43.536 75.018 50.536 82.018 L 57.536 89.018 64.500 82 L 71.464 74.982 64.464 67.982 L 57.464 60.982 50.500 68 M 85.500 68 L 78.536 75.018 85.536 82.018 L 92.536 89.018 99.500 82 L 106.464 74.982 99.464 67.982 L 92.464 60.982 85.500 68 M 67.722 85.776 L 60.998 92.552 67.999 99.499 L 75 106.446 82.001 99.499 L 89.002 92.552 82.278 85.776 C 78.579 82.049, 75.305 79, 75 79 C 74.695 79, 71.421 82.049, 67.722 85.776" stroke="none" fill="#000000" fill-rule="evenodd"/>
</svg>