<svg xmlns="http://www.w3.org/2000/svg" width="150" height="150" viewBox="0 0 150 150" version="1.1">
	<path d="M 73.517 22.167 C 73.251 22.900, 72.913 27.775, 72.767 33 L 72.500 42.500 58.209 42.625 C 50.349 42.693, 43.655 43.012, 43.333 43.333 C 43.012 43.655, 42.693 50.349, 42.625 58.209 L 42.500 72.500 32.250 72.785 C 22.889 73.045, 22 73.237, 22 75 C 22 76.763, 22.889 76.955, 32.250 77.215 L 42.500 77.500 42.625 91.791 C 42.693 99.651, 43.012 106.345, 43.333 106.667 C 43.655 106.988, 50.349 107.307, 58.209 107.375 L 72.500 107.500 73 118 C 73.402 126.444, 73.794 128.500, 75 128.500 C 76.206 128.500, 76.598 126.444, 77 118 L 77.500 107.500 91.791 107.375 C 99.651 107.307, 106.345 106.988, 106.667 106.667 C 106.988 106.345, 107.307 99.651, 107.375 91.791 L 107.500 77.500 117.750 77.215 C 127.111 76.955, 128 76.763, 128 75 C 128 73.237, 127.111 73.045, 117.750 72.785 L 107.500 72.500 107.375 58.209 C 107.307 50.349, 106.988 43.655, 106.667 43.333 C 106.345 43.012, 99.651 42.693, 91.791 42.625 L 77.500 42.500 77 32.080 C 76.661 25.009, 76.098 21.527, 75.251 21.247 C 74.563 21.020, 73.783 21.434, 73.517 22.167 M 47.433 48.314 C 47.156 49.037, 47.057 54.446, 47.214 60.334 L 47.500 71.039 59.484 59.019 L 71.469 47 59.703 47 C 50.906 47, 47.810 47.332, 47.433 48.314 M 90.516 59.019 L 102.500 71.039 102.786 60.334 C 102.943 54.446, 102.844 49.037, 102.567 48.314 C 102.190 47.332, 99.094 47, 90.297 47 L 78.531 47 90.516 59.019 M 62.495 63.005 L 50.521 75.011 62.760 87.250 L 75 99.490 87.240 87.250 L 99.479 75.011 87.505 63.005 C 80.920 56.402, 75.292 51, 75 51 C 74.708 51, 69.080 56.402, 62.495 63.005 M 47 90.297 C 47 99.094, 47.332 102.190, 48.314 102.567 C 49.037 102.844, 54.446 102.943, 60.334 102.786 L 71.039 102.500 59.019 90.516 L 47 78.531 47 90.297 M 90.516 90.981 L 78.531 103 90.297 103 C 99.094 103, 102.190 102.668, 102.567 101.686 C 102.844 100.963, 102.943 95.554, 102.786 89.666 L 102.500 78.961 90.516 90.981" stroke="none" fill="#000000" fill-rule="evenodd"/>
</svg>