<svg xmlns="http://www.w3.org/2000/svg" width="500" height="500" viewBox="0 0 500 500" version="1.1">
	<path d="M 122.202 118.333 C 108.628 132.042, 107.699 133.513, 110.829 136.345 C 113.920 139.142, 115.153 138.374, 126.145 126.793 L 136.791 115.578 142.145 120.191 C 145.090 122.728, 153.800 130.910, 161.500 138.375 C 175 151.461, 175.449 152.027, 174.067 154.223 C 163.900 170.372, 156.583 190.103, 155.413 204.520 L 154.721 213.051 139.685 212.775 L 124.649 212.500 123.441 207.131 C 121.881 200.199, 118.988 198.155, 115.571 201.571 C 113.584 203.559, 113.449 202.042, 117.153 219.344 C 120.866 236.689, 122.950 239.907, 127.511 235.346 C 129.129 233.728, 129.093 231.624, 127.323 224.250 L 126.783 222 140.873 222 C 157.130 222, 155.499 220.681, 156.389 234.546 C 156.673 238.971, 157.184 243.316, 157.524 244.203 C 157.970 245.365, 156.599 246.885, 152.603 249.657 C 146.870 253.634, 145.517 255.578, 146.570 258.321 C 147.923 261.848, 150.960 261.278, 159.026 255.983 C 167.177 250.632, 168.833 248.425, 167.113 245.211 C 166.160 243.430, 165.751 240.672, 164.527 227.750 L 163.983 222 192.491 222 C 211.730 222, 221 222.341, 221 223.050 C 221 225.684, 211.312 240.643, 198.042 258.500 C 194.363 263.450, 188.046 272, 184.005 277.500 C 163.771 305.036, 153.648 313.962, 142.627 313.990 C 137.952 314.002, 128.178 307.486, 122.271 300.420 C 116.240 293.205, 109.288 295.788, 113.515 303.674 C 115.608 307.579, 128.986 318.816, 134.861 321.604 C 143.451 325.681, 158.002 320.625, 168.802 309.810 C 178.409 300.191, 205.847 264.184, 220.291 242.242 C 223.643 237.151, 226.693 233.326, 227.069 233.742 C 229.587 236.533, 240.039 271.915, 241.510 282.629 C 241.878 285.308, 243.126 290.535, 244.284 294.245 C 248.644 308.209, 255.779 302.375, 258.490 282.629 C 259.961 271.915, 270.413 236.533, 272.931 233.742 C 273.307 233.326, 276.357 237.151, 279.709 242.242 C 293.954 263.882, 318.807 296.641, 329.414 307.759 C 341.005 319.909, 354.233 325.388, 364.108 322.129 C 368.913 320.543, 383.880 308.218, 386.393 303.777 C 390.824 295.948, 383.818 293.136, 377.804 300.330 C 371.701 307.631, 362.467 314, 357.984 314 C 346.523 314, 336.263 305.081, 315.995 277.500 C 311.954 272, 305.637 263.450, 301.958 258.500 C 288.688 240.643, 279 225.684, 279 223.050 C 279 222.341, 288.270 222, 307.509 222 L 336.017 222 335.473 227.750 C 334.249 240.672, 333.840 243.430, 332.887 245.211 C 331.208 248.349, 332.672 250.315, 340.742 255.763 C 349.213 261.482, 350.098 261.759, 352.429 259.429 C 355.336 256.521, 354.257 254.249, 347.926 249.950 C 343.489 246.937, 342.020 245.390, 342.474 244.208 C 342.815 243.319, 343.327 238.971, 343.611 234.546 C 344.501 220.681, 342.870 222, 359.127 222 L 373.217 222 372.677 224.250 C 370.907 231.624, 370.871 233.728, 372.489 235.346 C 377.050 239.907, 379.134 236.689, 382.847 219.344 C 386.551 202.042, 386.416 203.559, 384.429 201.571 C 381.012 198.155, 378.119 200.199, 376.559 207.131 L 375.351 212.500 360.315 212.775 L 345.279 213.051 344.587 204.520 C 343.439 190.376, 335.326 168.174, 326.768 155.762 L 324.881 153.024 328.690 148.435 C 332.899 143.365, 359.402 118.391, 362.113 116.940 C 363.500 116.197, 365.647 117.994, 373.498 126.472 C 384.152 137.978, 386.198 139.246, 389.222 136.222 C 392.220 133.224, 391.214 131.683, 377.023 117.523 L 364.025 104.554 361.136 106.261 C 359.546 107.200, 356.728 109.390, 354.873 111.129 C 353.018 112.868, 346.100 119.277, 339.500 125.372 C 332.900 131.467, 325.660 138.465, 323.411 140.923 L 319.322 145.392 316.190 141.946 C 314.468 140.051, 313.045 138.179, 313.029 137.787 C 312.975 136.470, 301.585 129.310, 291.500 124.253 C 263.384 110.155, 236.650 110.454, 207 125.197 C 196.757 130.290, 193.236 132.651, 187.500 138.274 L 180.500 145.135 175 139.180 C 171.975 135.905, 163.650 127.913, 156.500 121.419 C 149.350 114.925, 143.275 109.351, 143 109.033 C 142.097 107.987, 137.089 105, 136.237 105 C 135.779 105, 129.464 111, 122.202 118.333 M 229 125.881 C 213.135 130.488, 196.936 139.505, 190.953 147.059 L 187.704 151.161 195.741 159.331 C 215.569 179.486, 224.723 192.638, 228.399 206.250 L 230.222 213 250 213 L 269.778 213 271.601 206.250 C 275.277 192.638, 284.431 179.486, 304.259 159.331 L 312.296 151.161 308.943 146.928 C 302.728 139.081, 283.772 128.858, 268.333 125.027 C 256.054 121.979, 241.333 122.299, 229 125.881 M 176.236 168.250 C 169.519 180.484, 164 198.895, 164 209.065 L 164 213 192.583 213 C 215.059 213, 221.056 212.733, 220.650 211.750 C 220.365 211.063, 219.216 207.572, 218.096 203.993 C 215.616 196.067, 212.192 190.531, 204.494 182 C 196.161 172.765, 182.657 159, 181.929 159 C 181.591 159, 179.029 163.162, 176.236 168.250 M 309.413 167.250 C 289.713 187.458, 285.185 193.506, 281.904 203.993 C 280.784 207.572, 279.635 211.063, 279.350 211.750 C 278.944 212.733, 284.941 213, 307.417 213 L 336 213 336 209.065 C 336 204.350, 333.903 194.096, 330.977 184.500 C 328.963 177.895, 319.399 159, 318.071 159 C 317.732 159, 313.837 162.713, 309.413 167.250 M 233.265 223.250 C 236.729 232.283, 246.270 262.434, 247.663 268.750 C 248.663 273.288, 249.715 277, 250 277 C 250.285 277, 251.337 273.288, 252.337 268.750 C 253.730 262.434, 263.271 232.283, 266.735 223.250 C 267.107 222.280, 263.360 222, 250 222 C 236.640 222, 232.893 222.280, 233.265 223.250 M 191.625 342.518 C 189.357 344.786, 189.528 345.787, 193.553 353.833 C 202.023 370.764, 223.443 381.118, 250 381.118 C 276.758 381.118, 298.084 370.725, 306.574 353.548 C 310.548 345.508, 310.526 342.421, 306.490 341.408 C 303.262 340.598, 302.395 341.315, 299.982 346.791 C 294.966 358.172, 289.490 362.898, 275.500 367.916 C 258.515 374.010, 241.411 374.005, 224.549 367.904 C 211.041 363.017, 205.535 358.368, 200.300 347.430 C 197.246 341.051, 194.593 339.549, 191.625 342.518 M 170.897 369.883 C 168.876 371.519, 168.722 372.094, 169.720 374.284 C 170.811 376.680, 171.345 376.823, 180.684 377.216 C 192.108 377.697, 195.355 376.270, 193.267 371.687 C 191.425 367.645, 175.270 366.341, 170.897 369.883 M 311.198 368.727 C 306.876 369.260, 304.747 373.176, 307.359 375.787 C 308.795 377.224, 310.639 377.444, 318.786 377.150 C 328.832 376.789, 331 376.041, 331 372.934 C 331 368.664, 323.917 367.159, 311.198 368.727 M 173 389.732 C 168.382 390.581, 166.758 393.488, 168.958 396.966 C 170.063 398.714, 192.618 398.562, 194.750 396.792 C 196.651 395.215, 196.244 391.201, 194.066 390.035 C 192.175 389.023, 177.966 388.819, 173 389.732 M 305.750 390.013 C 303.722 391.272, 303.427 395.279, 305.250 396.792 C 306.727 398.018, 328.953 398.765, 330.758 397.650 C 332.502 396.571, 332.305 392.498, 330.433 390.944 C 328.389 389.248, 308.209 388.487, 305.750 390.013" stroke="none" fill="#000000" fill-rule="evenodd"/>
</svg>