<svg xmlns="http://www.w3.org/2000/svg" width="500" height="500" viewBox="0 0 500 500" version="1.1">
	<path d="M 182.571 93.571 C 180.331 95.812, 180.038 94.861, 191.122 121.329 C 196.690 134.623, 201.435 145.990, 201.668 146.589 C 201.900 147.188, 198.539 149.741, 194.199 152.263 C 163.616 170.033, 142.344 201.696, 138.391 235.334 C 137.970 238.909, 137.292 240.945, 136.606 240.686 C 122.248 235.269, 96.601 227.762, 95.287 228.591 C 94.339 229.189, 92.120 235.270, 89.829 243.549 C 72.534 306.049, 72.006 308.142, 73.037 310.069 C 74.201 312.244, 78.219 312.650, 79.786 310.750 C 80.353 310.063, 85.147 293.797, 90.439 274.604 C 95.732 255.412, 100.274 239.366, 100.533 238.946 C 101.092 238.043, 114 242.070, 114 243.147 C 114 243.553, 109.486 260.164, 103.970 280.060 C 98.453 299.955, 94.201 317.058, 94.521 318.066 C 95.195 320.190, 97.998 321.322, 100.351 320.419 C 102.240 319.694, 102 320.458, 113.531 278.500 C 118.368 260.900, 122.488 246.302, 122.686 246.061 C 122.884 245.819, 126.160 246.624, 129.968 247.850 L 136.889 250.080 137.363 254.290 C 139.142 270.123, 140.348 276.286, 143.520 285.769 C 164.036 347.098, 231.918 378.492, 291.806 354.349 C 332.471 337.955, 358.604 301.743, 362.422 256.500 C 362.700 253.200, 362.944 250.413, 362.964 250.308 C 363.058 249.803, 377 245.677, 377.314 246.061 C 377.512 246.302, 381.632 260.900, 386.469 278.500 C 398.201 321.188, 397.753 319.787, 399.880 320.462 C 402.370 321.252, 404.803 320.196, 405.492 318.025 C 405.805 317.040, 401.547 299.955, 396.030 280.060 C 390.514 260.164, 386 243.553, 386 243.147 C 386 242.482, 399.176 237.744, 399.540 238.277 C 399.624 238.400, 404.077 254.475, 409.436 274 C 414.795 293.525, 419.644 310.063, 420.212 310.750 C 421.800 312.672, 425.800 312.242, 426.989 310.021 C 427.795 308.514, 427.459 305.950, 425.580 299.271 C 424.222 294.447, 419.439 277.225, 414.951 261 C 406.064 228.877, 405.751 228, 403.186 228 C 402.227 228, 392.693 230.925, 382 234.500 C 371.307 238.075, 362.494 241, 362.417 241 C 362.339 241, 361.973 238.427, 361.603 235.282 C 357.650 201.646, 336.412 170.049, 305.801 152.263 C 301.461 149.741, 298.100 147.188, 298.332 146.589 C 298.565 145.990, 303.310 134.623, 308.878 121.329 C 319.962 94.861, 319.669 95.812, 317.429 93.571 C 313.109 89.252, 312.018 90.876, 300.037 119.460 C 290.654 141.846, 289.482 144.122, 287.589 143.641 C 286.440 143.350, 281.900 142.182, 277.500 141.046 C 259 136.272, 239.060 136.436, 220.103 141.520 C 214.935 142.906, 210.526 143.859, 210.306 143.639 C 210.085 143.418, 205.230 132.091, 199.516 118.468 C 188.047 91.120, 186.823 89.320, 182.571 93.571 M 236.500 147.144 C 229.050 148.093, 216.152 151.426, 214.913 152.721 C 214.193 153.475, 248.981 237.998, 250.011 237.999 C 250.534 238, 284.646 156.648, 285.197 154.088 C 285.858 151.012, 261.825 145.800, 248.500 146.129 C 245.750 146.197, 240.350 146.654, 236.500 147.144 M 200.221 158.970 C 180.171 169.935, 162.669 189.528, 154.094 210.608 C 131.522 266.097, 160.529 329.385, 217.213 348.322 C 271.003 366.292, 329.083 337.604, 347.877 283.781 C 364.404 236.454, 344.182 183.888, 299.923 159.125 L 294.345 156.004 275.661 200.752 C 265.385 225.363, 256.982 245.838, 256.989 246.250 C 256.995 246.662, 260.060 247, 263.800 247 C 270.997 247, 273 247.980, 273 251.500 C 273 255.730, 271.621 256, 250 256 C 228.379 256, 227 255.730, 227 251.500 C 227 247.980, 229.003 247, 236.200 247 C 239.940 247, 243 246.628, 243 246.174 C 243 245.445, 206.169 156.836, 205.651 156.318 C 205.538 156.205, 203.095 157.399, 200.221 158.970" stroke="none" fill="#000000" fill-rule="evenodd"/>
</svg>