<svg xmlns="http://www.w3.org/2000/svg" width="500" height="500" viewBox="0 0 500 500" version="1.1">
	<path d="M 183.465 26.231 C 183.025 27.378, 190.292 48.951, 195.133 60.865 C 196.473 64.165, 196.432 64.282, 193.007 66.865 C 144.052 103.798, 144.048 178.741, 193 214.947 C 239.485 249.329, 302.635 235.573, 330.892 184.911 C 352.299 146.531, 340.693 92.556, 305.627 67.406 L 302.754 65.345 304.959 60.423 C 308.992 51.420, 317.053 27.580, 316.527 26.210 C 316.242 25.467, 314.994 25.004, 313.754 25.180 C 311.829 25.453, 310.770 27.552, 306.500 39.548 C 303.750 47.274, 300.657 55.459, 299.626 57.736 L 297.752 61.877 292.537 58.934 C 267.936 45.050, 230.691 44.824, 206.381 58.411 L 201.996 60.861 200.804 58.681 C 200.148 57.481, 197.111 49.525, 194.056 41 C 189.287 27.696, 188.181 25.455, 186.246 25.180 C 185.006 25.004, 183.754 25.477, 183.465 26.231 M 235.393 55.020 C 206.958 60.157, 183.899 77.307, 171.556 102.500 C 164.401 117.102, 162.500 125.184, 162.500 141 C 162.500 174.774, 180.438 203.715, 210.500 218.444 C 225.102 225.599, 233.184 227.500, 249 227.500 C 288.302 227.500, 321.012 202.846, 332.584 164.500 C 336.101 152.845, 336.596 132.983, 333.667 121 C 324.402 83.092, 290.835 55.748, 252 54.474 C 245.675 54.267, 238.202 54.512, 235.393 55.020 M 247.250 135.662 C 245.244 136.472, 245.479 175.322, 247.500 177 C 248.697 177.993, 249.303 177.993, 250.500 177 C 251.738 175.973, 252 172.404, 252 156.578 C 252 135.841, 251.564 133.922, 247.250 135.662 M 20.384 138.442 C 18.846 142.449, 21.340 143, 41 143 C 54.796 143, 60.023 143.331, 60.770 144.250 C 62.072 145.854, 67.203 162.130, 66.598 162.735 C 66.347 162.987, 60.147 162.219, 52.820 161.029 C 36.764 158.422, 26.700 158.554, 26.162 161.380 C 25.646 164.085, 27.690 164.968, 34.500 164.983 C 42.316 165, 66.860 169.002, 68.362 170.505 C 69.589 171.732, 74.518 190.816, 73.795 191.539 C 73.563 191.770, 68.227 191.495, 61.937 190.928 C 55.647 190.361, 45.775 190.032, 40 190.198 C 30.029 190.485, 29.484 190.612, 29.185 192.715 C 28.777 195.586, 29.664 195.747, 49.500 196.412 C 74.534 197.251, 75.841 197.516, 76.531 201.887 C 76.845 203.874, 78.429 211.821, 80.051 219.547 C 81.673 227.273, 83 234.725, 83 236.106 C 83 241.520, 87.052 243.494, 93 240.980 C 95.614 239.875, 100.679 239.500, 113 239.500 C 130.621 239.500, 143.294 241.678, 152.490 246.286 C 154.684 247.386, 162.213 250.656, 169.221 253.554 C 180.746 258.320, 195.552 266.551, 198.081 269.597 C 198.798 270.462, 195.726 272.767, 186.783 278.074 C 176.617 284.107, 172.531 287.315, 163.080 296.682 L 151.659 308 144.080 308.035 C 130.300 308.098, 117.023 311.266, 105.254 317.298 C 95.194 322.454, 97.477 327.635, 107.617 322.662 C 115.366 318.862, 123.928 316.147, 131.716 315.020 C 139.350 313.917, 147 313.701, 147 314.590 C 147 314.914, 144.306 318.626, 141.012 322.840 C 132.840 333.295, 125.305 343.562, 123.961 346.073 C 121.143 351.339, 126.589 352.874, 129.907 347.750 C 136.450 337.647, 152.263 317.860, 153.099 318.728 C 153.507 319.153, 154.034 328.095, 154.269 338.599 C 154.704 358.060, 155.004 360, 157.584 360 C 160.599 360, 161.025 355.268, 160.035 332.781 C 159.471 319.979, 159.433 310.048, 159.945 309.134 C 160.430 308.267, 164.725 303.661, 169.489 298.900 C 179.104 289.289, 202.147 274.352, 205.420 275.607 C 207.440 276.383, 223.080 294.569, 226.701 300.354 C 228.129 302.634, 230.407 305.834, 231.764 307.465 C 233.122 309.095, 237.339 316.858, 241.137 324.715 C 250.134 343.325, 249.866 343.325, 258.863 324.715 C 262.661 316.858, 266.878 309.095, 268.236 307.465 C 269.593 305.834, 271.871 302.634, 273.299 300.354 C 276.920 294.569, 292.560 276.383, 294.580 275.607 C 297.853 274.352, 320.896 289.289, 330.511 298.900 C 335.275 303.661, 339.570 308.267, 340.055 309.134 C 340.567 310.048, 340.529 319.979, 339.965 332.781 C 338.975 355.268, 339.401 360, 342.416 360 C 344.996 360, 345.296 358.060, 345.731 338.599 C 345.966 328.095, 346.493 319.153, 346.901 318.728 C 347.737 317.860, 363.550 337.647, 370.093 347.750 C 373.411 352.874, 378.857 351.339, 376.039 346.073 C 374.695 343.562, 367.160 333.295, 358.988 322.840 C 355.694 318.626, 353 314.914, 353 314.590 C 353 313.701, 360.650 313.917, 368.284 315.020 C 376.072 316.147, 384.634 318.862, 392.383 322.662 C 402.523 327.635, 404.806 322.454, 394.746 317.298 C 382.977 311.266, 369.700 308.098, 355.920 308.035 L 348.341 308 336.920 296.682 C 327.469 287.315, 323.383 284.107, 313.217 278.074 C 304.274 272.767, 301.202 270.462, 301.919 269.597 C 304.448 266.551, 319.254 258.320, 330.779 253.554 C 337.787 250.656, 345.316 247.386, 347.510 246.286 C 356.706 241.678, 369.379 239.500, 387 239.500 C 399.321 239.500, 404.386 239.875, 407 240.980 C 412.948 243.494, 417 241.520, 417 236.106 C 417 234.725, 418.327 227.273, 419.949 219.547 C 421.571 211.821, 423.155 203.874, 423.469 201.887 C 424.159 197.516, 425.466 197.251, 450.500 196.412 C 470.336 195.747, 471.223 195.586, 470.815 192.715 C 470.516 190.612, 469.971 190.485, 460 190.198 C 454.225 190.032, 444.353 190.361, 438.063 190.928 C 431.773 191.495, 426.437 191.770, 426.205 191.539 C 425.482 190.816, 430.411 171.732, 431.638 170.505 C 433.140 169.002, 457.684 165, 465.500 164.983 C 472.310 164.968, 474.354 164.085, 473.838 161.380 C 473.300 158.554, 463.236 158.422, 447.180 161.029 C 439.853 162.219, 433.653 162.987, 433.402 162.735 C 432.797 162.130, 437.928 145.854, 439.230 144.250 C 439.977 143.331, 445.204 143, 459 143 C 478.660 143, 481.154 142.449, 479.616 138.442 C 478.823 136.374, 436.945 136.650, 434.862 138.736 C 432.201 141.401, 419.727 187.397, 416.485 206.500 C 415.645 211.450, 413.955 220.052, 412.729 225.616 L 410.500 235.732 408 234.650 C 406.511 234.005, 398.020 233.559, 387 233.547 C 367.105 233.524, 354.641 235.794, 342.986 241.561 C 340.503 242.790, 332.873 246.150, 326.031 249.028 C 318.637 252.138, 309.759 256.858, 304.147 260.663 L 294.704 267.066 287.102 264.596 C 261.481 256.271, 238.519 256.271, 212.898 264.596 L 205.296 267.066 195.853 260.663 C 190.241 256.858, 181.363 252.138, 173.969 249.028 C 167.127 246.150, 159.497 242.790, 157.014 241.561 C 145.359 235.794, 132.895 233.524, 113 233.547 C 101.980 233.559, 93.489 234.005, 92 234.650 L 89.500 235.732 87.271 225.616 C 86.045 220.052, 84.355 211.450, 83.515 206.500 C 80.273 187.397, 67.799 141.401, 65.138 138.736 C 63.055 136.650, 21.177 136.374, 20.384 138.442 M 233.500 265.634 C 225.832 267.209, 211.736 270.930, 211.126 271.540 C 210.915 271.751, 214.117 275.653, 218.242 280.212 C 228.126 291.137, 238.794 306.546, 244.689 318.412 C 247.308 323.686, 249.698 328, 250 328 C 250.302 328, 252.692 323.686, 255.311 318.412 C 261.180 306.598, 271.864 291.148, 281.630 280.354 C 285.683 275.873, 289 272.001, 289 271.749 C 289 271.497, 285.738 270.383, 281.750 269.274 C 262.575 263.937, 247.347 262.789, 233.500 265.634 M 248.200 377.200 C 247.384 378.016, 247 382.776, 247 392.092 L 247 405.785 234.758 414.642 C 228.025 419.514, 220.966 424.556, 219.071 425.847 C 212.305 430.456, 180 461.149, 180 462.969 C 180 465.336, 182.809 466.378, 184.877 464.779 C 186.653 463.404, 191.522 458.895, 206 445.215 C 211.225 440.279, 216.850 435.158, 218.500 433.836 C 223.261 430.023, 245.834 414, 246.446 414 C 246.751 414, 247 429.702, 247 448.893 C 247 478.987, 247.206 483.865, 248.500 484.362 C 252.970 486.077, 253 485.841, 253 448.416 L 253 413.046 264.250 421.203 C 282.226 434.237, 283.741 435.457, 293.873 445.064 C 307.774 458.244, 313.283 463.354, 315.123 464.779 C 317.191 466.378, 320 465.336, 320 462.969 C 320 461.149, 287.695 430.456, 280.929 425.847 C 279.034 424.556, 271.975 419.514, 265.242 414.642 L 253 405.785 253 392.092 C 253 379.296, 252.386 376, 250 376 C 249.670 376, 248.860 376.540, 248.200 377.200" stroke="none" fill="#000000" fill-rule="evenodd"/>
</svg>