<svg xmlns="http://www.w3.org/2000/svg" width="70" height="70" viewBox="0 0 70 70" version="1.1">
	<path d="M 27.481 18.394 C 24 19.910, 18 26.355, 18 28.578 C 18 29.407, 15.907 32.323, 13.349 35.058 C 8.456 40.289, 8.015 43.276, 12.815 38.677 C 16.169 35.464, 17 35.339, 17 38.050 C 17 42.662, 22.885 49.885, 28.315 51.936 C 37.653 55.464, 49.795 49.886, 52.519 40.816 C 52.902 39.542, 55.051 36.597, 57.295 34.271 C 61.775 29.627, 61.678 27.018, 57.185 31.323 C 53.607 34.751, 53.355 34.704, 52.562 30.479 C 50.679 20.441, 37.432 14.058, 27.481 18.394 M 30.968 19.941 C 26.805 21.206, 24.005 23.309, 21.825 26.810 L 19.763 30.119 22.015 32.516 C 24.892 35.579, 30.841 39.604, 33.778 40.476 C 35.542 41, 36.724 40.437, 39.021 37.977 C 41.508 35.315, 42.089 35.069, 42.620 36.452 C 43.678 39.208, 39.250 43, 34.974 43 C 31.439 43, 29.992 42.235, 21.929 36.102 L 18.776 33.704 19.509 37.102 C 22.655 51.702, 41.087 55.576, 48.338 43.161 C 50.533 39.403, 49.475 37.615, 42.117 32.644 C 36.022 28.526, 34.333 28.432, 30.979 32.023 C 28.492 34.685, 27.911 34.931, 27.380 33.548 C 26.322 30.792, 30.750 27, 35.026 27 C 38.561 27, 40.008 27.765, 48.071 33.898 L 51.224 36.296 50.504 32.898 C 48.421 23.063, 39.710 17.285, 30.968 19.941 M 33.532 33.611 C 31.860 35.283, 31.863 35.427, 33.594 36.692 C 36.323 38.688, 39.219 35.791, 36.857 33.429 C 35.429 32, 35.126 32.017, 33.532 33.611" stroke="none" fill="#000000" fill-rule="evenodd"/>
</svg>