<svg xmlns="http://www.w3.org/2000/svg" width="500" height="500" viewBox="0 0 500 500" version="1.1">
	<path d="M 210.035 43.934 C 209.413 45.096, 209 54.481, 209 67.434 L 209 89 198.571 89 C 190.424 89, 187.799 89.344, 186.571 90.571 C 183.409 93.734, 180.047 89.220, 226.953 144.776 C 243.967 164.928, 247.842 169, 250 169 C 252.158 169, 256.033 164.928, 273.047 144.776 C 319.953 89.220, 316.591 93.734, 313.429 90.571 C 312.201 89.344, 309.576 89, 301.429 89 L 291 89 291 67.434 C 291 44.529, 290.553 42, 286.500 42 C 282.447 42, 282 44.529, 282 67.434 L 282 89 250 89 L 218 89 218 67.434 C 218 44.529, 217.553 42, 213.500 42 C 212.121 42, 210.623 42.837, 210.035 43.934 M 224.161 127.750 C 237.990 144.113, 249.617 157.500, 250 157.500 C 250.383 157.500, 262.010 144.113, 275.839 127.750 L 300.982 98 250 98 L 199.018 98 224.161 127.750 M 152.750 177.080 C 149.168 179.166, 151.284 183.063, 176.092 220.069 C 189.893 240.656, 211.349 272.699, 223.772 291.276 C 246.507 325.273, 248.417 327.545, 252.383 325.326 C 254.904 323.914, 349 182.946, 349 180.579 C 349 179.380, 348.460 177.860, 347.800 177.200 C 346.224 175.624, 155.452 175.506, 152.750 177.080 M 182.452 213.750 C 193.065 229.563, 202.111 242.500, 202.554 242.500 C 203.318 242.500, 232.837 199.840, 239.054 189.750 L 241.982 185 202.569 185 L 163.157 185 182.452 213.750 M 260.946 189.750 C 267.157 199.830, 296.545 242.300, 297.376 242.397 C 297.858 242.454, 306.935 229.563, 317.548 213.750 L 336.843 185 297.431 185 L 258.018 185 260.946 189.750 M 230.457 218.594 C 220.031 233.787, 211.350 246.618, 211.167 247.108 C 210.975 247.621, 227.446 248, 249.917 248 C 271.413 248, 289 247.766, 289 247.480 C 289 246.597, 250.974 191.517, 250.171 191.236 C 249.755 191.091, 240.884 203.402, 230.457 218.594 M 117.571 224.571 C 115.068 227.075, 115.629 228.509, 122.135 236.224 C 131.700 247.569, 133.274 248.583, 136.429 245.429 C 138.964 242.893, 138.379 241.569, 130.861 232.814 C 121.595 222.024, 120.684 221.459, 117.571 224.571 M 377.389 223.765 C 375.051 225.312, 362 241.194, 362 242.492 C 362 244.232, 364.739 247, 366.461 247 C 368.980 247, 384 230.340, 384 227.546 C 384 224.462, 379.890 222.111, 377.389 223.765 M 99.571 243.571 C 98.707 244.436, 98 245.820, 98 246.647 C 98 248.031, 115.391 265.453, 118.628 267.311 C 121.870 269.172, 125.686 265.736, 124.506 262.018 C 123.781 259.736, 104.327 242, 102.547 242 C 101.775 242, 100.436 242.707, 99.571 243.571 M 387.177 250.154 C 373.831 262.696, 373.440 263.297, 376.571 266.429 C 379.224 269.081, 380.605 268.328, 391.481 258.307 C 402.392 248.252, 404.109 245.199, 400.066 243.035 C 396.858 241.318, 396.182 241.692, 387.177 250.154 M 144.348 243.765 C 142.411 245, 119 278.210, 119 279.722 C 119 281.507, 142.565 310.203, 144.970 311.347 C 148.311 312.937, 151.811 309.600, 161.593 295.500 C 175.371 275.639, 175.383 279.254, 161.480 260.457 C 149.736 244.577, 148.406 243.031, 146.500 243.031 C 145.950 243.031, 144.982 243.361, 144.348 243.765 M 351.411 243.765 C 350.812 244.169, 345.011 251.681, 338.520 260.457 C 324.617 279.254, 324.629 275.639, 338.407 295.500 C 348.189 309.600, 351.689 312.937, 355.030 311.347 C 357.435 310.203, 381 281.507, 381 279.722 C 381 278.210, 357.589 245, 355.652 243.765 C 355.018 243.361, 354.050 243.031, 353.500 243.031 C 352.950 243.031, 352.010 243.361, 351.411 243.765 M 138.500 266.245 C 134.100 272.330, 130.200 277.806, 129.834 278.415 C 129.467 279.024, 133.147 284.369, 138.011 290.291 L 146.854 301.060 154.943 289.460 C 159.653 282.706, 162.732 277.368, 162.313 276.680 C 161.768 275.785, 147.347 256.152, 146.639 255.341 C 146.562 255.254, 142.900 260.161, 138.500 266.245 M 345.971 265.235 C 341.862 270.805, 338.157 275.926, 337.737 276.616 C 337.260 277.399, 340.003 282.213, 345.052 289.452 L 353.129 301.035 360.721 291.768 C 364.896 286.670, 368.913 281.794, 369.647 280.932 C 370.798 279.579, 369.795 277.724, 362.348 267.432 C 357.600 260.869, 353.653 255.412, 353.578 255.304 C 353.503 255.196, 350.080 259.665, 345.971 265.235 M 212.167 257.792 C 212.929 259.603, 249.542 313.925, 250 313.925 C 250.458 313.925, 287.071 259.603, 287.833 257.792 C 288.017 257.356, 270.992 257, 250 257 C 229.008 257, 211.983 257.356, 212.167 257.792 M 180.948 320.656 C 174.229 330.367, 168.534 339.066, 168.293 339.987 C 167.773 341.977, 190.165 374.066, 192.987 375.374 C 197.309 377.378, 199.362 375.407, 211.308 357.782 C 217.750 348.277, 223.016 339.949, 223.010 339.276 C 223.005 338.602, 218.820 332.302, 213.711 325.276 C 208.601 318.249, 202.955 310.363, 201.163 307.750 C 195.735 299.838, 195.052 300.274, 180.948 320.656 M 298.837 307.750 C 297.045 310.363, 291.399 318.249, 286.289 325.276 C 281.180 332.302, 276.995 338.602, 276.990 339.276 C 276.984 339.949, 282.250 348.277, 288.692 357.782 C 300.638 375.407, 302.691 377.378, 307.013 375.374 C 309.835 374.066, 332.227 341.977, 331.707 339.987 C 331.466 339.066, 325.771 330.367, 319.052 320.656 C 304.948 300.274, 304.265 299.838, 298.837 307.750 M 190.369 322.731 C 187.751 326.454, 183.908 331.922, 181.827 334.882 C 179.747 337.842, 178.343 340.767, 178.708 341.382 C 182.527 347.818, 195.464 364.924, 196.043 364.305 C 199.379 360.742, 212.807 339.492, 212.277 338.616 C 210.524 335.717, 196.641 316.896, 195.932 316.458 C 195.490 316.185, 192.987 319.008, 190.369 322.731 M 300.109 321.395 C 292.182 332.208, 288.364 337.510, 287.709 338.616 C 287.189 339.493, 300.644 360.766, 303.957 364.305 C 304.741 365.143, 321.333 342.410, 321.333 340.497 C 321.333 339.426, 308.031 319.798, 305.508 317.145 C 304.437 316.019, 303.522 316.739, 300.109 321.395 M 153.723 361.593 C 140.701 373.885, 139.798 375.242, 142.708 378.153 C 145.673 381.118, 147.098 380.284, 159.750 368.178 C 171.111 357.308, 172.280 355.423, 169.429 352.571 C 166.724 349.867, 165.246 350.716, 153.723 361.593 M 330.571 352.571 C 329.707 353.436, 329 354.806, 329 355.616 C 329 356.982, 349.449 377.492, 352.625 379.311 C 355.834 381.150, 359.688 377.744, 358.530 374.094 C 357.809 371.822, 335.298 351, 333.563 351 C 332.782 351, 331.436 351.707, 330.571 352.571 M 226.656 383.709 C 208.734 407.603, 205.930 411.816, 206.656 413.754 C 207.120 414.994, 216.457 427.256, 227.403 441.004 C 244.561 462.551, 247.678 466, 250 466 C 252.322 466, 255.439 462.551, 272.597 441.004 C 283.543 427.256, 292.878 414.994, 293.340 413.754 C 294.598 410.376, 254.362 356.645, 250.247 356.209 C 247.720 355.941, 245.833 358.139, 226.656 383.709 M 235.483 386.661 C 227.793 396.931, 220.287 406.972, 218.804 408.976 L 216.107 412.619 232.647 433.309 C 241.744 444.689, 249.548 454, 249.989 454 C 250.580 454, 274.437 424.789, 283.077 413.487 C 283.767 412.585, 251.999 368.895, 250.181 368.244 C 249.788 368.104, 243.174 376.391, 235.483 386.661 M 176.829 372.250 C 173.818 374.674, 160 392.094, 160 393.467 C 160 395.319, 162.762 398, 164.670 398 C 167.116 398, 184 378.357, 184 375.512 C 184 372.031, 179.592 370.026, 176.829 372.250 M 317.571 372.571 C 315.100 375.043, 315.606 376.392, 321.972 384.305 C 333.352 398.451, 335.111 399.747, 338.429 396.429 C 340.978 393.879, 340.383 392.542, 332.362 382.788 C 321.961 370.141, 320.803 369.340, 317.571 372.571" stroke="none" fill="#000000" fill-rule="evenodd"/>
</svg>