<svg xmlns="http://www.w3.org/2000/svg" width="2000" height="2000" viewBox="0 0 2000 2000" version="1.1">
	<path d="M 1009.500 246.700 C 858.879 253.339, 728.574 321.665, 682.578 418.125 C 674.526 435.010, 667 460.248, 667 470.362 L 667 472.910 660.250 470.284 C 621.105 455.052, 581.788 446.179, 539 442.919 C 519.454 441.430, 471.292 442.309, 454.021 444.470 C 357.816 456.505, 272.802 498.141, 203.937 566.950 C 132.715 638.114, 89.530 727.135, 77.298 828 C 75.061 846.448, 74.757 910.737, 76.818 929.500 C 92.435 1071.665, 172.322 1193.703, 296.470 1265.044 C 331.963 1285.441, 382.926 1304.225, 421.500 1311.130 C 425.350 1311.819, 428.755 1312.753, 429.067 1313.204 C 430.058 1314.640, 443.212 1317.765, 451.289 1318.484 C 457.899 1319.073, 459.004 1319.429, 458.589 1320.839 C 451.073 1346.342, 447.876 1414.729, 452.736 1446.013 C 466.552 1534.939, 514.466 1622.065, 579.443 1676.412 C 660.816 1744.473, 781.974 1775.198, 889.193 1754.964 C 926.510 1747.921, 975.287 1725.076, 1013.811 1696.598 C 1026.777 1687.014, 1052.426 1661.605, 1064.079 1646.802 C 1087.949 1616.479, 1112.646 1569.438, 1118.575 1543 C 1124.263 1517.641, 1126.130 1462.268, 1121.984 1441.923 C 1115.957 1412.348, 1101.097 1387.206, 1071.047 1355.741 C 1043.224 1326.608, 1012.451 1308.890, 975 1300.440 C 963.659 1297.881, 917.754 1297.225, 903.875 1299.423 C 857.871 1306.710, 813.109 1344.539, 797.881 1389 C 794.838 1397.884, 794.052 1420.236, 796.425 1430.387 C 800.386 1447.333, 811.922 1461.223, 833.327 1474.821 C 863.694 1494.112, 882.342 1498.310, 928.695 1496.292 C 947.831 1495.459, 947.903 1495.447, 952.167 1492.450 C 960.159 1486.834, 962.500 1482.200, 962.500 1472 C 962.500 1461.791, 960.160 1457.168, 952.138 1451.528 L 947.831 1448.500 924.165 1448.295 C 893.881 1448.034, 886.511 1446.744, 870.939 1438.985 C 843.572 1425.347, 838.906 1416.715, 848.456 1397.392 C 869.689 1354.430, 918.359 1336.093, 971.551 1351.014 C 1002.456 1359.683, 1026.773 1377.151, 1050.841 1407.973 C 1070.747 1433.466, 1076.773 1452.182, 1075.639 1485 C 1074.380 1521.454, 1070.929 1536.056, 1056.965 1564 C 1024.976 1628.014, 988.609 1662.515, 921.500 1692.510 C 891.275 1706.019, 846.659 1714.293, 813 1712.631 C 717.304 1707.907, 623.689 1664.066, 574.627 1601 C 530.063 1543.717, 504.072 1479.908, 498.998 1415.331 C 496.541 1384.060, 504.710 1329.441, 514.592 1311.069 C 522.693 1296.007, 525.082 1283.918, 521.601 1275.588 C 519.880 1271.468, 513.422 1270.004, 496.918 1269.993 C 491.188 1269.989, 482.225 1269.302, 477 1268.466 C 471.775 1267.630, 462.325 1266.496, 456 1265.947 C 400.813 1261.151, 331.960 1233.495, 280.500 1195.453 C 171.767 1115.073, 109.843 973.275, 125.489 840.500 C 147.029 657.711, 278.600 519.950, 456.469 493.949 C 522.192 484.342, 592.115 494.526, 657.171 523.182 C 667.292 527.640, 669.244 528.892, 671.864 532.609 C 677.222 540.211, 681.903 542.500, 692.091 542.500 C 700.184 542.500, 701.142 542.279, 705.093 539.500 C 710.998 535.346, 711.695 531.987, 713.956 496.775 C 716.702 454.010, 730.697 423.272, 761.815 391.661 C 831.121 321.257, 970.033 282.657, 1100.342 297.592 C 1270.936 317.146, 1396.267 403.279, 1405.773 507.500 C 1407.688 528.493, 1402.592 551.159, 1390.484 575.500 C 1381.717 593.126, 1365.586 614.206, 1351.672 626.219 C 1343.815 633.002, 1341.647 638.008, 1342.334 647.781 C 1343.629 666.199, 1346.135 672.337, 1354.864 678.472 C 1358.900 681.309, 1359.751 681.500, 1368.336 681.500 L 1377.500 681.500 1390.301 674.131 C 1477.693 623.821, 1580.170 619.058, 1674.397 660.928 C 1835.068 732.321, 1931.510 923.188, 1900.011 1107.436 C 1879.449 1227.710, 1811.082 1325.990, 1713.500 1375.551 C 1667.844 1398.739, 1624.262 1409.357, 1574.500 1409.416 C 1538.468 1409.459, 1511.792 1405.254, 1476.615 1393.986 L 1466.996 1390.905 1467.748 1382.202 C 1468.921 1368.625, 1468.547 1331.567, 1467.125 1320.500 C 1449.275 1181.624, 1315.804 1028.124, 1132 935.086 C 1031.318 884.123, 934.334 858.317, 836 856.324 C 772.360 855.034, 725.908 862.169, 680.500 880.208 C 661.346 887.817, 633.616 903.184, 626.239 910.278 C 614.950 921.133, 616.664 939.195, 629.864 948.472 C 633.905 951.312, 634.744 951.500, 643.397 951.500 L 652.621 951.500 661.856 945.646 C 713.597 912.845, 786.321 898.895, 866 906.488 C 1040.879 923.151, 1229.865 1024.442, 1337.839 1159.379 C 1401.135 1238.482, 1430.552 1323.283, 1416.800 1387 C 1410.204 1417.565, 1413.673 1424.077, 1442.234 1434.734 C 1469.169 1444.784, 1492.024 1450.797, 1519.500 1455.062 C 1537.174 1457.806, 1589.378 1458.935, 1610.332 1457.027 C 1693.456 1449.458, 1771.746 1411.168, 1833.525 1347.870 C 1894.598 1285.295, 1933.215 1207.979, 1948.473 1117.730 C 1955.678 1075.116, 1956.465 1015.965, 1950.438 970 C 1923.778 766.667, 1765.152 601.827, 1580 585.049 C 1565.241 583.711, 1522.745 583.699, 1508.500 585.028 C 1487.025 587.031, 1458.457 592.603, 1439.650 598.455 C 1436.055 599.574, 1434.938 599.646, 1435.333 598.732 C 1435.626 598.055, 1437.949 592.775, 1440.495 587 C 1461.433 539.514, 1459.712 482.262, 1435.891 433.860 C 1392.338 345.364, 1280.927 276.375, 1145.500 254.041 C 1104.361 247.257, 1056.047 244.649, 1009.500 246.700" stroke="none" fill="#000000" fill-rule="evenodd"/>
</svg>