<svg xmlns="http://www.w3.org/2000/svg" width="500" height="500" viewBox="0 0 500 500" version="1.1">
	<path d="M 177.965 64.542 C 175.834 67.110, 177.505 147.462, 180.009 162.808 C 184.560 190.705, 193.935 207.917, 212.641 222.718 C 216.964 226.138, 225.156 232.585, 230.846 237.045 L 241.191 245.154 240.881 337.966 C 240.549 437.549, 240.378 434, 245.500 434 C 250.661 434, 250.475 437.186, 250.838 342.350 L 251.175 254.006 258.837 260.253 C 269.264 268.754, 283.421 283.321, 287.746 290 C 301.849 311.775, 310.375 360.370, 308.749 409.707 C 308.286 423.756, 308.393 425.046, 310.154 426.640 C 312.700 428.944, 317.141 427.465, 318.107 423.991 C 320.996 413.611, 317.285 343.538, 313.050 328.500 C 312.585 326.850, 311.440 322.125, 310.504 318 C 304.330 290.785, 293.636 275.254, 264.028 250.500 L 250.871 239.500 251.564 154.757 C 252.311 63.431, 252.493 67, 247.078 67 C 242.166 67, 242 67.801, 242 91.535 C 242 103.710, 241.702 140.021, 241.337 172.227 L 240.675 230.784 230.605 223.142 C 193.909 195.292, 188.727 181.340, 187.437 106.919 C 187.052 84.689, 186.330 65.713, 185.833 64.750 C 184.703 62.561, 179.718 62.430, 177.965 64.542" stroke="none" fill="#000000" fill-rule="evenodd"/>
</svg>