<svg xmlns="http://www.w3.org/2000/svg" width="430" height="430" viewBox="0 0 430 430" version="1.1">
	<path d="M 199.500 9.987 C 73.771 20.015, -13.020 140.983, 17.614 263.500 C 33.751 328.038, 82.223 381.839, 145.082 404.984 C 190.457 421.690, 241.543 421.690, 286.918 404.984 C 392.606 366.071, 446.676 249.054, 408.024 142.893 C 385.382 80.707, 330.872 31.764, 266.245 15.594 C 245.787 10.475, 220.263 8.331, 199.500 9.987 M 195.585 18.027 C 186.329 19.088, 171.959 21.708, 171.194 22.473 C 170.902 22.765, 180.864 33.224, 193.331 45.716 L 216 68.428 238.669 45.716 C 251.136 33.224, 261.069 22.736, 260.741 22.408 C 257.500 19.166, 212.206 16.121, 195.585 18.027 M 150.500 28.115 C 146.100 29.766, 137.438 33.406, 131.250 36.205 L 120 41.295 120 76.909 L 120 112.523 136.305 128.805 L 152.610 145.088 154.550 142.944 C 163.695 132.840, 191.568 120.736, 207.750 119.843 L 212 119.609 212 97.198 L 212 74.787 187.111 49.893 C 171.850 34.629, 161.502 25.022, 160.361 25.057 C 159.338 25.089, 154.900 26.465, 150.500 28.115 M 244.750 49.973 L 220 74.869 220 96.873 L 220 118.877 224.750 119.442 C 246.032 121.970, 263.850 129.181, 278.088 141.028 L 282.676 144.846 299.352 128.149 L 316.027 111.451 315.764 77.480 L 315.500 43.508 305 38.296 C 293.753 32.713, 274.034 24.975, 271.215 25.038 C 270.272 25.059, 258.363 36.280, 244.750 49.973 M 104.313 51.645 C 87.501 63.106, 71.009 79.115, 57.587 97 C 52.864 103.294, 49 108.794, 49 109.222 C 49 109.650, 63.175 110, 80.500 110 L 112 110 112 78.500 C 112 61.175, 111.803 47, 111.563 47 C 111.323 47, 108.060 49.090, 104.313 51.645 M 323 79.500 L 323 110 353 110 C 369.500 110, 383 109.650, 383 109.222 C 383 106.834, 364.222 83.856, 354.195 73.974 C 343.958 63.885, 325.898 49.083, 323.750 49.022 C 323.337 49.010, 323 62.725, 323 79.500 M 38.517 128.250 C 33.285 139.425, 26.028 159.304, 26.011 162.508 C 26.004 163.802, 34.264 172.775, 49.258 187.758 L 72.516 211 97.141 211 L 121.767 211 122.370 208.750 C 122.701 207.512, 122.979 205.095, 122.986 203.378 C 123.035 192.173, 132.056 169.663, 141.424 157.366 L 146.814 150.292 130.646 134.146 L 114.478 118 78.897 118 L 43.316 118 38.517 128.250 M 304.175 134.325 C 289.783 148.737, 288.061 150.805, 289.477 151.981 C 292.769 154.713, 301.944 169.791, 305.309 178 C 308.647 186.141, 311.199 196.151, 312.497 206.182 C 313.244 211.965, 312.148 211.697, 338.500 212.522 L 358.500 213.148 382.817 188.750 L 407.133 164.352 402.940 151.941 C 400.633 145.115, 396.481 134.686, 393.712 128.765 L 388.679 118 354.578 118 L 320.477 118 304.175 134.325 M 202.729 127.975 C 168.876 134.112, 140.547 160.687, 132.346 194 C 129.389 206.014, 129.857 226.843, 133.342 238.297 C 145.597 278.576, 181.376 304.077, 222.280 301.687 C 260.752 299.439, 292.324 273.423, 302.603 235.500 C 305.662 224.214, 305.205 202.277, 301.669 190.703 C 292.376 160.283, 269.694 137.969, 239.802 129.842 C 231.569 127.603, 210.604 126.548, 202.729 127.975 M 22.634 175.750 C 20.136 188.844, 19.572 195.830, 19.586 213.500 C 19.601 232.672, 21.641 252.616, 24.036 256.995 C 24.662 258.140, 29.828 253.518, 46.104 237.248 L 67.355 216.007 45.928 194.525 C 34.142 182.709, 24.198 173.033, 23.829 173.021 C 23.461 173.010, 22.923 174.238, 22.634 175.750 M 387.721 194.778 C 376.325 206.185, 366.994 215.964, 366.986 216.509 C 366.964 218.095, 407.298 257.107, 408.088 256.264 C 413.031 250.981, 413.846 184.468, 409.080 175.270 C 408.679 174.495, 400.767 181.722, 387.721 194.778 M 214.344 190.057 C 191.967 194.401, 184.107 222.160, 200.954 237.347 C 206.747 242.571, 211.268 244.323, 219.069 244.371 C 243.708 244.523, 255.934 215.001, 238.467 197.533 C 232.157 191.224, 222.982 188.380, 214.344 190.057 M 50.742 242.758 C 37.684 255.824, 27 267.277, 27 268.208 C 27 271.262, 33.941 289.275, 39.540 300.750 L 45.029 312 79.070 312 L 113.112 312 129.556 295.608 C 145.507 279.708, 147.071 277.780, 145.041 276.525 C 142.920 275.214, 132.626 258.371, 129.845 251.660 C 126.522 243.643, 123.018 230.149, 123.007 225.332 C 122.992 218.703, 124.158 219, 98.135 219 L 74.484 219 50.742 242.758 M 312.545 222.636 C 309.046 245.624, 303.120 260.180, 291.409 274.559 L 287.202 279.724 303.876 296.376 L 320.549 313.028 353.525 312.764 L 386.500 312.500 392.047 301.484 C 397.927 289.808, 405 271.330, 405 267.646 C 405 266.102, 398.335 258.818, 382.750 243.331 L 360.500 221.222 346 220.595 C 338.025 220.250, 327.368 219.699, 322.317 219.370 L 313.133 218.772 312.545 222.636 M 134.736 300.798 L 117.973 317.570 118.236 351.035 L 118.500 384.500 127 388.720 C 137.382 393.873, 153.751 400.347, 161.647 402.422 L 167.500 403.959 190.500 380.979 L 213.500 357.998 213.800 334.054 L 214.100 310.109 210.300 309.562 C 198.122 307.808, 188.543 305.445, 181.020 302.341 C 172.445 298.802, 158.119 289.999, 154.590 286.100 C 153.545 284.945, 152.422 284.006, 152.095 284.013 C 151.768 284.020, 143.956 291.573, 134.736 300.798 M 276 289.624 C 264.439 298.907, 239.864 308.964, 228.622 309.014 C 226.905 309.021, 224.488 309.299, 223.250 309.630 L 221 310.233 220.981 333.867 L 220.961 357.500 244.108 380.302 C 266.363 402.225, 267.374 403.077, 270.377 402.431 C 275.807 401.261, 294.136 394.037, 304 389.179 L 313.500 384.500 313.762 351 L 314.025 317.500 297.762 301.354 L 281.500 285.207 276 289.624 M 51 320.661 C 51 321.849, 62.171 336.320, 69.415 344.515 C 79.256 355.648, 100.036 373.627, 108.250 378.114 C 109.899 379.015, 110 377.361, 110 349.535 L 110 320 80.500 320 C 64.275 320, 51 320.297, 51 320.661 M 322 350.035 C 322 383.329, 320.717 380.752, 332.783 371.686 C 347.811 360.394, 362.319 346.161, 372.252 332.965 C 374.101 330.509, 376.879 326.813, 378.425 324.750 L 381.237 321 351.619 321 L 322 321 322 350.035 M 197.109 385.391 C 180.755 401.759, 177.108 405.890, 178.618 406.330 C 190.606 409.823, 228.199 410.574, 246.440 407.685 C 252.458 406.732, 257.612 405.721, 257.894 405.439 C 258.400 404.933, 219.006 365, 218 365 C 217.715 365, 208.314 374.176, 197.109 385.391" stroke="none" fill="#000000" fill-rule="evenodd"/>
</svg>