<svg xmlns="http://www.w3.org/2000/svg" width="500" height="500" viewBox="0 0 500 500" version="1.1">
	<path d="M 83.819 103.497 C 82.485 106.425, 85.898 116.294, 91.058 124.431 C 94.829 130.377, 110.495 145.460, 117.331 149.725 C 131.586 158.620, 149.913 164.277, 168.894 165.641 L 178.288 166.315 177.561 213.205 C 176.795 262.584, 176.825 263, 181.197 263 C 182.270 263, 185.703 260.611, 188.824 257.692 C 198.300 248.830, 202.023 246.407, 219.716 237.584 C 236.588 229.170, 253.707 223.137, 265.500 221.446 L 270.500 220.730 264.988 226.615 C 235.203 258.418, 158.320 341.555, 157.689 342.643 C 155.281 346.792, 160.656 350.479, 164.559 347.356 C 166.455 345.838, 261.410 243.847, 279.676 223.707 L 284.853 218 295.176 218.001 C 340.385 218.004, 372.814 231.821, 390.596 258.654 C 396.574 267.675, 396.731 268.159, 394.317 270.128 C 390.877 272.932, 333 343.075, 333 344.439 C 333 346.272, 335.734 349, 337.571 349 C 339.595 349, 339.594 349, 369.889 312.500 C 384.953 294.350, 399.465 277.384, 402.139 274.798 C 404.812 272.212, 407 269.512, 406.999 268.798 C 406.999 268.084, 403.443 262.053, 399.098 255.396 C 389.163 240.174, 378.735 231.078, 361.532 222.632 C 342.549 213.312, 328.880 210.309, 301.132 209.361 C 280.344 208.651, 270.913 210.033, 244.674 217.638 C 227.429 222.636, 197.985 237.505, 188.750 245.880 L 186 248.374 186 234.350 C 186 226.636, 186.296 208.165, 186.657 193.302 L 187.315 166.280 196.907 165.630 C 214.298 164.452, 230.141 160.073, 244.942 152.355 C 251.104 149.141, 267.662 134.214, 273.134 126.939 C 278.393 119.948, 283.486 107.287, 282.348 104.036 C 280.820 99.672, 274 100.464, 274 105.007 C 274 110.467, 265.842 122.938, 256.436 131.855 C 235.921 151.305, 206.543 159.943, 171.250 156.903 C 143.453 154.509, 126.639 147.685, 109.786 131.961 C 100.233 123.047, 92 110.606, 92 105.084 C 92 100.640, 85.680 99.414, 83.819 103.497 M 101.174 194.121 C 58.722 215.755, 54.067 218.299, 53.446 220.212 C 52.825 222.123, 54.549 226, 56.020 226 C 56.542 226, 73.514 232.579, 93.735 240.620 C 133.657 256.495, 134.986 256.927, 136.881 254.644 C 138.805 252.325, 137.296 182.439, 135.277 180.420 C 132.914 178.057, 131.888 178.470, 101.174 194.121 M 97.810 205.775 C 82.031 213.874, 69.431 220.809, 69.810 221.187 C 70.190 221.565, 83.550 227.022, 99.500 233.314 L 128.500 244.755 128.836 239.128 C 129.316 231.073, 127.902 190.995, 127.139 191.025 C 126.788 191.039, 113.590 197.676, 97.810 205.775 M 132.500 368 C 130.695 373.686, 131.637 374, 150.532 374 C 166.906 374, 167.993 373.882, 169 372 C 169.760 370.579, 169.760 369.421, 169 368 C 167.993 366.118, 166.906 366, 150.532 366 C 134.013 366, 133.103 366.101, 132.500 368 M 319.012 367.977 C 318.235 369.429, 318.235 370.571, 319.012 372.023 C 320.045 373.953, 320.906 374.033, 337.797 373.773 L 355.500 373.500 355.500 370 L 355.500 366.500 337.797 366.227 C 320.906 365.967, 320.045 366.047, 319.012 367.977 M 133.186 390.055 C 131.319 390.804, 130.933 391.613, 131.186 394.241 L 131.500 397.500 149.496 397.774 C 165.537 398.018, 167.628 397.862, 168.746 396.333 C 170.435 394.023, 170.339 393.339, 168 391 C 166.169 389.169, 164.714 389.005, 150.750 389.063 C 142.363 389.098, 134.459 389.544, 133.186 390.055 M 320.024 390.976 C 318.541 392.459, 318.257 393.521, 318.888 395.226 C 319.721 397.478, 319.905 397.500, 338.115 397.500 L 356.500 397.500 356.836 394.549 C 357.403 389.563, 355.473 389, 337.809 389 C 323.396 389, 321.825 389.175, 320.024 390.976" stroke="none" fill="#000000" fill-rule="evenodd"/>
</svg>