<svg xmlns="http://www.w3.org/2000/svg" width="150" height="150" viewBox="0 0 150 150" version="1.1">
	<path d="M 124.177 35.592 C 116.759 40.338, 115.794 42.023, 118.468 45.559 C 119.276 46.626, 119.951 47.791, 119.968 48.148 C 120.003 48.848, 95.914 63.294, 95.538 62.799 C 95.412 62.635, 91.788 56.267, 87.483 48.649 C 79.046 33.720, 77.642 31.816, 75.639 32.585 C 74.922 32.860, 70.547 39.804, 65.918 48.017 C 61.288 56.229, 57.155 62.960, 56.733 62.974 C 55.651 63.011, 35.159 50.066, 34.429 48.885 C 34.098 48.350, 34.560 46.794, 35.455 45.428 C 36.351 44.061, 36.818 42.514, 36.493 41.989 C 35.590 40.528, 22.102 31.998, 20.719 32.013 C 19.393 32.027, 10 45.879, 10 47.821 C 10 50.735, 27.911 60.101, 28.032 57.250 C 28.049 56.837, 28.680 55.687, 29.434 54.693 C 30.715 53.003, 31.558 53.375, 42.402 60.415 C 48.781 64.557, 54 68.152, 54 68.404 C 54 68.656, 50.168 75.501, 45.484 83.615 C 40.120 92.908, 37.319 98.719, 37.916 99.316 C 38.454 99.854, 46.233 100.181, 55.932 100.072 L 73 99.881 73 113.880 L 73 127.879 69.250 128.190 L 65.500 128.500 65.500 138.500 L 65.500 148.500 75.500 148.500 L 85.500 148.500 85.500 138.500 L 85.500 128.500 81.750 128.190 L 78 127.879 78 115.521 C 78 98.304, 76.126 99.853, 96.700 100.072 C 106.591 100.177, 114.551 99.849, 115.087 99.313 C 115.680 98.720, 112.863 92.877, 107.516 83.615 C 102.832 75.501, 99.006 68.556, 99.012 68.181 C 99.026 67.427, 101.385 65.854, 114.194 58.053 L 122.889 52.759 125.205 55.452 L 127.521 58.145 135.261 53.093 C 139.517 50.314, 143 47.530, 143 46.906 C 143 44.951, 133.855 31, 132.573 31 C 131.903 31, 128.124 33.066, 124.177 35.592 M 68.976 52.238 C 64.864 59.453, 61.394 65.614, 61.263 65.928 C 61.133 66.243, 62.596 67.517, 64.513 68.759 C 70.493 72.634, 68.083 76.553, 61.997 72.852 C 60.202 71.760, 58.413 71.234, 58.022 71.684 C 56.651 73.257, 45 94.208, 45 95.099 C 45 95.595, 51.275 96, 58.945 96 L 72.890 96 73.195 91.250 C 73.451 87.268, 73.823 86.500, 75.500 86.500 C 77.130 86.500, 77.593 87.333, 78 91 L 78.500 95.500 93.250 95.777 C 101.482 95.931, 108 95.658, 108 95.157 C 108 93.508, 94.780 71, 93.812 71 C 93.286 71, 90.924 72.132, 88.564 73.516 C 84.838 75.699, 84.109 75.837, 83.049 74.559 C 81.441 72.621, 82.227 71.537, 87.472 68.464 L 91.840 65.904 84.287 52.702 C 80.133 45.441, 76.671 39.414, 76.593 39.310 C 76.516 39.205, 73.088 45.023, 68.976 52.238" stroke="none" fill="#000000" fill-rule="evenodd"/>
</svg>