<svg xmlns="http://www.w3.org/2000/svg" width="500" height="500" viewBox="0 0 500 500" version="1.1">
	<path d="M 288.139 121.765 C 286.386 123.251, 285.783 126.158, 283.944 142 C 282.348 155.747, 281.373 160.916, 280.148 162.120 C 278.293 163.944, 221.141 199.026, 220.142 198.954 C 219.452 198.905, 197.697 171.630, 197.286 170.299 C 197.151 169.860, 200.856 167.266, 205.520 164.536 C 210.185 161.805, 214.236 158.831, 214.523 157.926 C 215.809 153.877, 211.852 150.939, 207.935 153.035 C 198.294 158.195, 120.340 204.442, 119.767 205.342 C 117.934 208.223, 120.899 212.521, 124.136 211.675 C 125.148 211.410, 139.943 203.017, 157.015 193.023 C 174.088 183.029, 188.465 174.998, 188.965 175.176 C 189.928 175.519, 211.977 203.147, 211.969 204 C 211.967 204.275, 192.560 216.361, 168.844 230.857 L 125.724 257.213 94.121 253.044 L 62.519 248.875 60.774 251.031 C 58.948 253.286, 59.736 256.613, 62.315 257.538 C 62.967 257.772, 76.659 259.692, 92.741 261.806 C 108.824 263.920, 122.149 265.841, 122.352 266.075 C 122.556 266.309, 130.239 279.498, 139.426 295.384 L 156.131 324.267 157.053 338.813 C 157.560 346.813, 157.868 353.457, 157.737 353.577 C 157.607 353.697, 152.100 355.219, 145.500 356.957 C 125.842 362.136, 124.799 362.707, 126.570 367.321 C 127.711 370.294, 130.813 370.106, 145.682 366.157 C 153.832 363.993, 161.400 361.999, 162.500 361.727 C 181.432 357.034, 237.825 341.545, 238.750 340.784 C 239.438 340.218, 240 338.701, 240 337.413 C 240 332.265, 238.092 332.498, 201.944 342.073 C 183.129 347.057, 167.402 350.767, 166.995 350.317 C 166.589 349.868, 165.981 343.411, 165.646 335.968 L 165.036 322.436 228.268 307.037 C 263.046 298.567, 297.512 290.190, 304.861 288.421 L 318.221 285.205 346.498 313.102 C 362.050 328.446, 375.430 341, 376.232 341 C 378.034 341, 381 337.842, 381.001 335.921 C 381.002 335.140, 368.123 321.900, 352.382 306.500 L 323.761 278.500 336.465 253 L 349.168 227.500 352.834 226.874 C 354.850 226.529, 363.293 225.936, 371.596 225.557 L 386.691 224.866 387.346 234.087 C 387.705 239.158, 388 246.868, 388 251.219 C 388 260.281, 389.039 263, 392.500 263 C 396.759 263, 397.239 260.378, 396.454 241.403 L 395.733 224 399.617 223.999 C 406.307 223.998, 440.392 222.014, 442.683 221.493 C 446.368 220.654, 446.851 214.924, 443.351 213.581 C 442.529 213.266, 420.899 214.132, 395.284 215.506 L 348.713 218.005 343.606 213.286 C 340.798 210.691, 327.677 198.096, 314.448 185.298 L 290.396 162.029 292.689 143.265 C 293.951 132.944, 294.787 123.967, 294.548 123.315 C 293.605 120.749, 290.285 119.945, 288.139 121.765 M 208.294 216.826 C 166.380 242.497, 132.068 263.837, 132.044 264.249 C 131.953 265.795, 160.448 314, 161.452 313.999 C 162.028 313.998, 196.651 305.673, 238.390 295.499 C 280.130 285.324, 314.404 277, 314.556 277 C 314.811 277, 341 224.020, 341 223.504 C 341 222.844, 285.853 170.011, 285.232 170.076 C 284.829 170.117, 250.207 191.155, 208.294 216.826" stroke="none" fill="#000000" fill-rule="evenodd"/>
</svg>