<svg xmlns="http://www.w3.org/2000/svg" width="150" height="150" viewBox="0 0 150 150" version="1.1">
	<path d="M 73.419 23.250 C 67.633 27.162, 64.582 32.721, 62.953 42.317 C 61.379 51.593, 62.231 54.439, 73.285 76.832 C 82.095 94.679, 82.498 95.786, 82.458 102 C 82.370 115.676, 76.745 124.160, 66.863 125.519 C 62.980 126.053, 62 126.572, 62 128.094 C 62 129.689, 62.741 130, 66.540 130 C 77.893 130, 85.326 121.255, 87.462 105.386 C 88.426 98.222, 87.203 94.566, 76.700 73.209 C 67.912 55.340, 67.502 54.211, 67.542 48.001 C 67.630 34.296, 73.207 25.893, 83.085 24.583 C 87.083 24.053, 88 23.565, 88 21.966 C 88 18.480, 79.346 19.242, 73.419 23.250 M 40.297 48.250 C 39.117 49.805, 31.401 77.437, 29.950 85.302 C 29.172 89.520, 29.187 92.037, 30.006 94.519 C 33.772 105.931, 50.228 105.931, 53.994 94.519 C 55.400 90.258, 54.471 84.871, 48.816 64.500 C 44.799 50.033, 43.618 47, 42 47 C 41.585 47, 40.818 47.563, 40.297 48.250 M 100.143 49.533 C 93.778 54.889, 93.826 57.782, 100.702 83.500 C 105.479 101.366, 106.971 104.558, 109.334 101.964 C 110.634 100.537, 119.219 70.289, 120.481 62.688 C 121.925 53.993, 116.361 47, 108 47 C 104.273 47, 102.458 47.585, 100.143 49.533 M 106 51.719 C 102.219 53.084, 101 55.294, 101 60.783 C 101 66.086, 106.678 90, 107.936 90 C 109.223 90, 115.246 65.361, 115.138 60.541 C 114.992 54.058, 110.782 49.993, 106 51.719 M 38.220 71.795 C 33.046 90.749, 34.126 98.333, 42 98.333 C 49.874 98.333, 50.954 90.749, 45.780 71.795 C 44.009 65.308, 42.308 60, 42 60 C 41.692 60, 39.991 65.308, 38.220 71.795" stroke="none" fill="#000000" fill-rule="evenodd"/>
</svg>