<svg xmlns="http://www.w3.org/2000/svg" width="150" height="150" viewBox="0 0 150 150" version="1.1">
	<path d="M 82.422 13.418 C 75 16.650, 69.991 28.357, 71.250 39.528 C 71.653 43.105, 71.421 44.049, 70.026 44.492 C 67.151 45.404, 65.758 49.688, 67.115 53.442 C 68.215 56.485, 67.907 57.365, 61.815 68.586 C 56.392 78.574, 54.931 80.550, 52.777 80.806 C 49.193 81.234, 46.724 84.338, 46.062 89.248 C 44.750 98.993, 26.259 104.202, 17.250 97.365 C 11.087 92.687, 13.768 80.846, 20.689 82.179 C 23.335 82.688, 23.389 85.356, 20.776 86.502 C 17.400 87.983, 17.901 90.442, 21.654 90.806 C 30.064 91.623, 29.968 79.155, 21.552 77.576 C 7.653 74.968, 4.032 96.298, 17.211 103.149 C 24.980 107.188, 40.002 104.833, 47.027 98.475 C 48.192 97.421, 49.437 97.265, 51.641 97.897 C 55.147 98.903, 60.350 97.136, 61.319 94.611 C 62.347 91.932, 87.245 92.261, 90.727 95 C 93.670 97.315, 97.811 97.590, 100.468 95.647 C 104.556 92.658, 116.639 99.533, 120.534 107.065 C 125.469 116.609, 117.079 129.170, 110.298 122.389 C 107.967 120.058, 107.880 119.691, 109.320 118.251 C 110.645 116.926, 111.158 116.886, 112.500 118 C 115.422 120.425, 117.830 116.830, 115.107 114.107 C 108.626 107.626, 100.819 116.806, 105.735 125.128 C 108.459 129.740, 117.072 130.588, 121.823 126.713 C 126.749 122.695, 128.421 111.673, 125.085 105.210 C 121.830 98.905, 110.797 90, 106.240 90 C 105.531 90, 104.480 88.763, 103.906 87.252 C 102.526 83.622, 100.076 81, 98.065 81 C 95.175 81, 83.172 57.312, 83.747 52.743 C 84.302 48.342, 82.156 44.390, 78.448 42.980 C 75.616 41.904, 75.166 36.987, 77.082 28.055 C 78.947 19.359, 86.963 14.734, 94 18.294 C 96.989 19.806, 97.504 24.279, 94.750 24.810 C 93.531 25.044, 93 24.508, 93 23.042 C 93 20.503, 90.151 19.152, 88.914 21.104 C 84.818 27.573, 93.972 33.119, 99.545 27.545 C 107.795 19.296, 94.367 8.217, 82.422 13.418 M 73.750 48.218 C 70.648 49.288, 70.449 49.864, 72.306 52.404 C 74.086 54.838, 78.403 54.179, 78.798 51.412 C 79.226 48.420, 77.087 47.066, 73.750 48.218 M 74.451 58.679 C 73.031 58.962, 70.479 62.634, 66.128 70.659 C 60.322 81.368, 59.942 82.447, 61.048 85.116 L 62.243 88 74.433 88 L 86.624 88 88.919 84.896 C 90.527 82.721, 90.957 81.279, 90.357 80.076 C 85.230 69.799, 78.347 58.028, 77.528 58.136 C 76.963 58.211, 75.578 58.456, 74.451 58.679 M 51.709 86.624 C 50.111 88.222, 51.003 92.768, 53.018 93.294 C 55.868 94.040, 58.124 91.512, 57.098 88.721 C 56.289 86.517, 53.069 85.264, 51.709 86.624 M 92.945 87.566 C 91.744 89.014, 91.869 89.475, 93.912 91.130 C 96.689 93.379, 99.290 92.026, 98.798 88.588 C 98.422 85.955, 94.806 85.324, 92.945 87.566" stroke="none" fill="#000000" fill-rule="evenodd"/>
</svg>