<svg xmlns="http://www.w3.org/2000/svg" width="150" height="150" viewBox="0 0 150 150" version="1.1">
	<path d="M 70.297 21.039 C 57.900 23.519, 49.783 33.696, 49.834 46.694 C 49.886 59.874, 53.191 63.736, 78.631 80.349 C 91.015 88.436, 94.624 92.312, 95.556 98.522 C 97.061 108.560, 93.728 116.504, 85.814 121.741 C 80.616 125.181, 68.773 125.688, 63.255 122.707 C 59.491 120.673, 55 112.669, 55 107.993 C 55 100.508, 61.433 93.277, 67.003 94.501 C 74.097 96.059, 75.845 101.829, 70.923 107.435 C 66.131 112.893, 69.294 115.434, 74.333 110.175 C 82.467 101.684, 78.009 91.062, 65.945 90.190 C 60.125 89.769, 59.872 89.855, 56.493 93.439 C 46.634 103.893, 49.856 121.510, 62.663 127.175 C 80.435 135.036, 100.433 122.474, 100.352 103.500 C 100.295 90.274, 95.987 85.226, 71.420 69.590 C 56.613 60.167, 53.191 55.128, 54.300 44.383 C 56.718 20.954, 92.158 17.476, 94.743 40.413 C 96.098 52.437, 84.548 60.597, 77.984 52.253 C 75.250 48.777, 75.490 46.651, 79.077 42.565 C 80.770 40.637, 81.868 38.596, 81.518 38.030 C 79.148 34.195, 72 42.072, 72 48.519 C 72 55.467, 75.881 59.219, 83.649 59.781 C 91.173 60.325, 94.865 57.650, 97.944 49.421 C 100.576 42.384, 100.521 39.647, 97.623 33.500 C 92.849 23.377, 82.407 18.616, 70.297 21.039 M 19 50.779 C 19 53.419, 31.458 65.422, 33.417 64.670 C 36.168 63.614, 35.176 61.617, 28.723 55.221 C 22.436 48.990, 19 47.420, 19 50.779 M 121.221 55.277 C 114.792 61.763, 113.871 63.629, 116.583 64.670 C 118.542 65.422, 131 53.419, 131 50.779 C 131 47.371, 127.429 49.013, 121.221 55.277 M 9 75 C 9 76.995, 9.444 77.039, 26.750 76.773 C 41.740 76.542, 44.500 76.267, 44.500 75 C 44.500 73.733, 41.740 73.458, 26.750 73.227 C 9.444 72.961, 9 73.005, 9 75 M 105.500 74 C 103.943 76.520, 106.835 77, 123.559 77 C 140.333 77, 141 76.924, 141 75 C 141 73.076, 140.333 73, 123.559 73 C 113.010 73, 105.874 73.395, 105.500 74 M 25.221 91.277 C 18.990 97.564, 17.420 101, 20.779 101 C 23.419 101, 35.422 88.542, 34.670 86.583 C 33.614 83.832, 31.617 84.824, 25.221 91.277 M 115.330 86.583 C 114.578 88.542, 126.581 101, 129.221 101 C 132.629 101, 130.987 97.429, 124.723 91.221 C 118.237 84.792, 116.371 83.871, 115.330 86.583" stroke="none" fill="#000000" fill-rule="evenodd"/>
</svg>