<svg xmlns="http://www.w3.org/2000/svg" width="150" height="150" viewBox="0 0 150 150" version="1.1">
	<path d="M 66 21.227 C 60.616 23.890, 53.305 30.938, 52.468 34.272 C 52.087 35.788, 50.332 37.418, 47.683 38.714 C 38.333 43.293, 27.388 55.981, 22.256 68.192 C 13.204 89.731, 25.050 112.921, 49.461 121.451 C 52.863 122.640, 56.964 124.546, 58.573 125.688 C 62.365 128.377, 70.173 131, 74.386 131 C 82.199 131, 93.564 123.927, 96.521 117.224 C 97.722 114.503, 99.531 112.684, 102.721 110.992 C 112.748 105.673, 124.613 91.405, 128.643 79.822 C 131.267 72.278, 131.126 59.057, 128.357 53 C 123.377 42.107, 112.512 32.558, 100.438 28.461 C 97.104 27.330, 93.054 25.466, 91.438 24.320 C 83.820 18.918, 73.264 17.634, 66 21.227 M 67 26.106 C 58.108 31.436, 54.128 39.372, 55.429 49.177 C 56.520 57.401, 57.702 58.734, 76.311 72.734 C 93.626 85.760, 94.220 86.111, 96.113 84.398 C 104.193 77.086, 104.732 63.330, 97.202 56.647 C 95.154 54.828, 95.030 54.854, 90.634 58.011 C 78.875 66.456, 62.007 59.379, 62.007 46 C 62.007 34.892, 73.496 27.585, 83.128 32.566 C 89.595 35.910, 90.556 45.671, 84.889 50.440 C 78.832 55.537, 70.785 51.362, 72.682 44.107 C 73.513 40.932, 76.798 41.401, 77.184 44.750 C 77.640 48.714, 82.042 48.666, 83.443 44.682 C 85.457 38.954, 79.955 34.184, 73.744 36.273 C 64.863 39.260, 64.627 51.222, 73.367 55.370 C 87.659 62.152, 99.944 44.600, 90.605 30.742 C 86.421 24.533, 73.768 22.048, 67 26.106 M 97.324 33.702 C 97.594 34.691, 98.078 36.693, 98.401 38.150 C 98.800 39.950, 99.976 41.145, 102.066 41.873 C 112.780 45.608, 117.500 53.599, 117.500 68 C 117.500 81.238, 115.020 87.099, 105.942 95.315 C 101.036 99.754, 100 101.252, 100 103.902 L 100 107.113 103.114 105.307 C 108.479 102.194, 117.879 91.024, 121.787 83.117 C 131.640 63.181, 122.931 42.719, 100.667 33.492 C 97.042 31.990, 96.861 32.001, 97.324 33.702 M 45.447 45.782 C 39.060 50.424, 32.214 58.844, 28.195 67 C 18.401 86.879, 27.098 107.294, 49.275 116.483 L 53.050 118.048 52.432 115.274 C 51.180 109.652, 50.859 109.146, 47.887 108.110 C 37.222 104.393, 32.500 96.379, 32.500 82 C 32.500 68.731, 34.974 62.906, 44.128 54.622 C 49.390 49.861, 50.100 48.785, 49.820 46.009 L 49.500 42.836 45.447 45.782 M 97.646 48.247 C 97.200 49.951, 97.783 51.062, 100.057 52.841 C 109.914 60.556, 109.471 79.978, 99.253 88.016 C 97.464 89.423, 97.074 90.445, 97.570 92.424 C 98.455 95.948, 99.033 95.741, 104.434 89.967 C 111.514 82.398, 113.269 77.623, 112.824 67.140 C 112.391 56.928, 111.031 53.757, 105.172 49.296 C 100.080 45.418, 98.445 45.190, 97.646 48.247 M 45.744 59.843 C 39.058 66.991, 37.700 70.210, 37.203 80.096 C 36.660 90.885, 38.715 96.332, 45.063 100.931 C 50.176 104.634, 51.621 104.764, 52.230 101.575 C 52.577 99.761, 51.979 98.621, 49.855 97.051 C 40.096 89.836, 40.602 69.965, 50.747 61.984 C 52.536 60.577, 52.926 59.555, 52.430 57.576 C 51.549 54.067, 50.960 54.266, 45.744 59.843 M 53.307 66.250 C 45.715 74.615, 45.447 86.833, 52.714 93.277 C 54.652 94.997, 54.889 94.939, 59.959 91.527 C 66.371 87.213, 71.178 86.938, 78.732 90.455 C 90.085 95.741, 91.360 109.877, 81.102 116.730 C 68.791 124.954, 54.313 109.960, 64.616 99.657 C 70.401 93.872, 77.677 97.710, 77.115 106.250 C 76.917 109.266, 73.179 108.404, 72.816 105.259 C 72.613 103.492, 71.812 102.386, 70.566 102.150 C 66.494 101.376, 64.317 109.188, 67.750 112.252 C 73.344 117.246, 83 112.210, 83 104.299 C 83 99.584, 81.149 96.773, 76.633 94.630 C 65.940 89.556, 55.231 97.568, 56.371 109.791 C 57.270 119.432, 62.517 124.628, 72.492 125.752 C 88.818 127.592, 100.853 106.797, 91.942 92.145 C 90.332 89.497, 57.720 64, 55.944 64 C 55.616 64, 54.430 65.013, 53.307 66.250" stroke="none" fill="#000000" fill-rule="evenodd"/>
</svg>